<svg width="326" height="141" viewBox="0 0 326 141" fill="none" xmlns="http://www.w3.org/2000/svg">
<rect y="34" width="74.2612" height="73" rx="15" fill="url(#paint0_linear_136_130)"/>
<path d="M21.5432 64.723C20.3272 64.723 19.3832 64.403 18.7112 63.763C18.0392 63.123 17.7032 62.227 17.7032 61.075V49.123C17.7032 48.675 17.8472 48.323 18.1352 48.067C18.4232 47.811 18.8072 47.683 19.2872 47.683C19.7672 47.683 20.1512 47.819 20.4392 48.091C20.7432 48.347 20.8952 48.691 20.8952 49.123V61.075C20.8952 61.443 20.9832 61.731 21.1592 61.939C21.3512 62.147 21.6072 62.251 21.9272 62.251H29.6072C30.0872 62.251 30.4552 62.363 30.7112 62.587C30.9672 62.795 31.0952 63.099 31.0952 63.499C31.0952 63.883 30.9592 64.187 30.6872 64.411C30.4312 64.619 30.0712 64.723 29.6072 64.723H21.5432ZM18.631 84.963C18.151 84.963 17.767 84.835 17.479 84.579C17.191 84.323 17.047 83.971 17.047 83.523V71.475C17.047 70.355 17.367 69.483 18.007 68.859C18.663 68.235 19.567 67.923 20.719 67.923H24.775C27.207 67.923 29.055 68.427 30.319 69.435C31.583 70.443 32.215 71.923 32.215 73.875C32.215 75.827 31.599 77.307 30.367 78.315C29.135 79.323 27.319 79.827 24.919 79.827H20.239V83.523C20.239 83.955 20.087 84.307 19.783 84.579C19.495 84.835 19.111 84.963 18.631 84.963ZM24.895 77.355C27.631 77.355 28.999 76.195 28.999 73.875C28.999 71.555 27.631 70.395 24.895 70.395H21.271C20.951 70.395 20.695 70.499 20.503 70.707C20.327 70.915 20.239 71.203 20.239 71.571V77.355H24.895Z" fill="#049713"/>
<path d="M37.9268 64.963C36.2788 64.963 34.9908 64.491 34.0628 63.547C33.1508 62.587 32.6948 61.259 32.6948 59.563V54.163C32.6948 53.715 32.8388 53.363 33.1268 53.107C33.4148 52.851 33.7988 52.723 34.2788 52.723C34.7748 52.723 35.1588 52.851 35.4308 53.107C35.7028 53.363 35.8388 53.715 35.8388 54.163V59.563C35.8388 60.475 36.0788 61.187 36.5588 61.699C37.0548 62.211 37.7428 62.467 38.6228 62.467C39.7588 62.467 40.6388 62.107 41.2628 61.387C41.9028 60.667 42.2228 59.675 42.2228 58.411V54.163C42.2228 53.715 42.3668 53.363 42.6548 53.107C42.9428 52.851 43.3268 52.723 43.8068 52.723C44.3028 52.723 44.6868 52.851 44.9588 53.107C45.2308 53.363 45.3668 53.715 45.3668 54.163V63.523C45.3668 63.987 45.2308 64.347 44.9588 64.603C44.7028 64.843 44.3348 64.963 43.8548 64.963C43.3748 64.963 42.9988 64.835 42.7268 64.579C42.4548 64.323 42.3188 63.971 42.3188 63.523V62.827C41.7268 63.563 41.0708 64.107 40.3508 64.459C39.6468 64.795 38.8388 64.963 37.9268 64.963ZM38.1538 84.963C37.1618 84.963 36.2818 84.795 35.5138 84.459C34.7618 84.123 34.1698 83.659 33.7378 83.067C33.3218 82.459 33.1138 81.763 33.1138 80.979C33.1138 79.795 33.6018 78.851 34.5778 78.147C35.5698 77.443 36.9058 77.091 38.5858 77.091C40.0418 77.091 41.2098 77.403 42.0898 78.027V77.451C42.0898 76.699 41.8578 76.123 41.3938 75.723C40.9298 75.323 40.2578 75.123 39.3778 75.123C38.0658 75.123 36.9378 75.403 35.9938 75.963C35.5938 76.187 35.2498 76.299 34.9618 76.299C34.6098 76.299 34.2978 76.139 34.0258 75.819C33.8498 75.595 33.7618 75.363 33.7618 75.123C33.7618 74.723 33.9698 74.371 34.3858 74.067C34.9618 73.651 35.6898 73.323 36.5698 73.083C37.4498 72.843 38.3778 72.723 39.3538 72.723C41.2098 72.723 42.6658 73.147 43.7218 73.995C44.7938 74.827 45.3298 75.979 45.3298 77.451V83.619C45.3298 84.035 45.1858 84.363 44.8978 84.603C44.6258 84.843 44.2498 84.963 43.7698 84.963C43.2738 84.963 42.8898 84.851 42.6178 84.627C42.3458 84.403 42.2098 84.083 42.2098 83.667V83.403C41.2978 84.443 39.9458 84.963 38.1538 84.963ZM38.8978 82.755C39.9058 82.755 40.6898 82.603 41.2498 82.299C41.8258 81.979 42.1138 81.539 42.1138 80.979C42.1138 80.451 41.8258 80.027 41.2498 79.707C40.6738 79.387 39.9058 79.227 38.9458 79.227C38.0818 79.227 37.4098 79.379 36.9298 79.683C36.4658 79.987 36.2338 80.419 36.2338 80.979C36.2338 81.539 36.4658 81.979 36.9298 82.299C37.3938 82.603 38.0498 82.755 38.8978 82.755Z" fill="white"/>
<path d="M58.9804 62.731C59.2364 62.987 59.3644 63.291 59.3644 63.643C59.3644 64.027 59.2044 64.355 58.8844 64.627C58.6284 64.835 58.3404 64.939 58.0204 64.939C57.5884 64.939 57.1884 64.755 56.8204 64.387L53.3644 60.691L49.8844 64.387C49.5164 64.755 49.1164 64.939 48.6844 64.939C48.3644 64.939 48.0764 64.835 47.8204 64.627C47.5004 64.355 47.3404 64.027 47.3404 63.643C47.3404 63.291 47.4684 62.987 47.7244 62.731L51.4924 58.723L48.0364 55.051C47.7324 54.715 47.5804 54.371 47.5804 54.019C47.5804 53.635 47.7404 53.307 48.0604 53.035C48.2844 52.827 48.5644 52.723 48.9004 52.723C49.3324 52.723 49.7564 52.931 50.1724 53.347L53.3644 56.731L56.5324 53.347C56.9484 52.931 57.3724 52.723 57.8044 52.723C58.1404 52.723 58.4204 52.827 58.6444 53.035C58.9644 53.307 59.1244 53.635 59.1244 54.019C59.1244 54.371 58.9724 54.715 58.6684 55.051L55.2124 58.723L58.9804 62.731ZM53.3683 90.723C52.2003 90.723 51.1363 90.539 50.1763 90.171C49.2323 89.819 48.5043 89.323 47.9923 88.683C47.7843 88.411 47.6803 88.131 47.6803 87.843C47.6803 87.459 47.8643 87.107 48.2323 86.787C48.4723 86.595 48.7363 86.499 49.0243 86.499C49.4563 86.499 49.8723 86.715 50.2723 87.147C50.9603 87.883 51.9683 88.251 53.2963 88.251C54.4323 88.251 55.2883 87.947 55.8643 87.339C56.4563 86.747 56.7523 85.875 56.7523 84.723V83.715C56.3683 84.083 55.8723 84.387 55.2643 84.627C54.6563 84.851 54.0803 84.963 53.5363 84.963C51.5363 84.963 49.9763 84.435 48.8563 83.379C47.7363 82.307 47.1763 80.819 47.1763 78.915V74.067C47.1763 73.683 47.3283 73.363 47.6323 73.107C47.9363 72.851 48.3123 72.723 48.7603 72.723C49.1923 72.723 49.5603 72.859 49.8643 73.131C50.1683 73.387 50.3203 73.699 50.3203 74.067V78.915C50.3203 80.067 50.6003 80.963 51.1603 81.603C51.7363 82.243 52.5283 82.563 53.5363 82.563C54.5123 82.563 55.2723 82.243 55.8163 81.603C56.3603 80.963 56.6323 80.067 56.6323 78.915V74.331C56.6323 73.819 56.7683 73.427 57.0403 73.155C57.3283 72.867 57.7203 72.723 58.2163 72.723C58.7123 72.723 59.0963 72.867 59.3683 73.155C59.6403 73.427 59.7763 73.819 59.7763 74.331V84.315C59.7763 86.331 59.2083 87.899 58.0723 89.019C56.9523 90.155 55.3843 90.723 53.3683 90.723Z" fill="#FF0101"/>
<rect x="239" y="34" width="74.2612" height="73" rx="15" fill="url(#paint1_linear_136_130)"/>
<rect x="253" y="79" width="47" height="2" fill="url(#paint2_linear_136_130)"/>
<path d="M255.962 73V70.984L256.682 70.864C256.97 70.816 257.162 70.72 257.258 70.576C257.354 70.432 257.402 70.112 257.402 69.616V59.296C257.402 58.896 257.346 58.616 257.234 58.456C257.122 58.296 256.922 58.2 256.634 58.168L255.962 58.096V56.08H264.914V58.072L263.906 58.192C263.57 58.24 263.338 58.344 263.21 58.504C263.098 58.664 263.042 58.936 263.042 59.32V70.504H264.458C264.922 70.504 265.314 70.44 265.634 70.312C265.954 70.168 266.234 69.944 266.474 69.64C266.714 69.336 266.922 68.944 267.098 68.464C267.29 67.968 267.49 67.368 267.698 66.664H270.434L269.762 73H255.962ZM274.106 73L271.106 59.368C271.01 58.936 270.89 58.656 270.746 58.528C270.602 58.4 270.354 58.304 270.002 58.24L269.018 58.072V56.08H278.474V58.12L277.466 58.288C277.146 58.336 276.938 58.464 276.842 58.672C276.762 58.864 276.754 59.16 276.818 59.56L278.546 67.96H278.618L281.306 56.08H286.466L289.442 68.224H289.514L291.026 59.464C291.106 59 291.114 58.696 291.05 58.552C290.986 58.392 290.786 58.288 290.45 58.24L289.346 58.072V56.08H295.97V58.12L294.818 58.288C294.642 58.304 294.474 58.336 294.314 58.384C294.17 58.416 294.034 58.512 293.906 58.672C293.794 58.816 293.698 59.088 293.618 59.488L290.93 73H284.978L282.434 62.536H282.362L279.986 73H274.106Z" fill="white"/>
<g clip-path="url(#clip0_136_130)">
<path fill-rule="evenodd" clip-rule="evenodd" d="M207.234 59.0715C202.967 56.5892 178.114 42.252 175.81 40.8701C169.762 37.2069 168.847 37.8301 171.251 43.827C175.736 55.0968 176.184 58.1052 176.224 58.1956C155.495 57.2399 140.512 56.8304 109.41 58.575C99.3654 59.1358 98.7822 59.2864 99.8757 61.1628C100.849 62.7677 102.699 63.0295 111.406 62.6293C133.956 61.5846 174.233 62.0058 180.404 63.3605C183.231 63.9683 183.062 62.2229 179.248 51.3916C178.338 48.8054 177.685 46.6034 177.769 46.5009C178.164 46.0224 213.492 66.8667 213.504 66.9914C213.51 67.0537 211.523 68.6298 209.089 70.4692C199.327 77.8609 192.77 84.5656 184.835 93.291C185.143 76.2732 186.52 76.2031 164.28 77.8471C147.35 79.1041 115.63 80.9712 107.941 81.808C98.6302 82.8013 101.615 88.3017 119.116 86.7692C125.543 86.2117 168.783 83.1067 172.24 82.7415C179.34 81.9931 179.312 82.0272 179.169 84.778C178.926 89.1114 179.434 93.7181 180.336 96.8713C181.845 102.074 183.516 101.787 187.078 97.9506C192.123 92.5244 192.965 92.1285 212.846 75.1714C221.977 67.4316 221.057 67.0174 207.234 59.0715Z" fill="white"/>
</g>
<g clip-path="url(#clip1_136_130)">
<path d="M310.487 25.9191L314.501 24.0981C314.751 23.9855 315.032 23.9725 315.291 24.0615C315.55 24.1506 315.769 24.3356 315.906 24.5817L318.109 28.4934L322.375 29.4925C322.644 29.5523 322.883 29.7143 323.046 29.9475C323.209 30.1807 323.283 30.4686 323.255 30.7558L322.826 35.2833L325.72 38.7193C325.91 38.9454 326.01 39.2396 325.999 39.5407C325.987 39.8418 325.866 40.1269 325.66 40.3368L322.834 43.6776L323.255 48.2474C323.282 48.5381 323.203 48.8288 323.035 49.0618C322.867 49.2948 322.621 49.4531 322.347 49.5054L318.147 50.4781L315.917 54.4241C315.773 54.6781 315.544 54.8662 315.274 54.9509C315.004 55.0356 314.714 55.0108 314.461 54.8813L310.513 53.0735L306.499 54.8919C306.25 55.0064 305.969 55.0218 305.71 54.9352C305.451 54.8486 305.231 54.6659 305.091 54.4215L302.889 50.4992L298.625 49.4975C298.36 49.4362 298.125 49.2753 297.964 49.045C297.804 48.8148 297.73 48.5311 297.755 48.2474L298.174 43.7172L295.28 40.2813C295.089 40.0554 294.989 39.7611 295.001 39.4598C295.012 39.1585 295.134 38.8733 295.341 38.6638L298.164 35.3203L297.755 30.7558C297.728 30.4647 297.807 30.1737 297.975 29.9403C298.143 29.7069 298.389 29.548 298.663 29.4951L302.864 28.5225L305.091 24.5765C305.234 24.3213 305.464 24.1325 305.735 24.0482C306.005 23.9638 306.297 23.9901 306.549 24.1219L310.487 25.9191Z" fill="#CC0000"/>
<path fill-rule="evenodd" clip-rule="evenodd" d="M310.482 27.1928L314.943 25.1709L317.392 29.5319L322.135 30.6446L321.668 35.6796L324.88 39.5014L321.678 43.2862L322.135 48.3555L317.417 49.4471L314.943 53.8292L310.518 51.8073L306.055 53.8292L303.608 49.4682L298.865 48.3555L299.332 43.3205L296.12 39.5014L299.322 35.7139L298.865 30.6446L303.58 29.553L306.055 25.1709L310.482 27.1928Z" fill="white"/>
<path d="M304.821 44.5838L304.763 44.5309C304.729 44.701 304.65 44.8578 304.535 44.9838C304.421 45.1097 304.275 45.2 304.115 45.2446L302.256 45.7732C302.026 45.837 301.781 45.8028 301.574 45.6779C301.368 45.5531 301.218 45.3479 301.156 45.1071L299.599 39.0097C299.569 38.8903 299.561 38.7657 299.576 38.6432C299.592 38.5207 299.63 38.4025 299.689 38.2955C299.748 38.1885 299.827 38.0947 299.92 38.0195C300.014 37.9443 300.121 37.8892 300.235 37.8573L301.983 37.3684C302.137 37.3249 302.298 37.325 302.452 37.3686C302.605 37.4123 302.745 37.498 302.856 37.6168L302.889 37.6459C302.923 37.4756 303.002 37.3188 303.116 37.1927C303.231 37.0667 303.377 36.9765 303.537 36.9323L305.397 36.4037C305.561 36.3536 305.736 36.3536 305.901 36.4037C306.019 36.2751 306.168 36.1836 306.332 36.1393L310.424 34.9923C310.487 34.9738 310.551 34.9632 310.616 34.9606L310.667 34.9341C310.712 34.9135 310.76 34.8967 310.808 34.8839L312.74 34.3421C312.955 34.2807 313.184 34.3062 313.381 34.4135C313.502 34.2173 313.688 34.0751 313.903 34.0144L315.326 33.6153C315.542 33.554 315.771 33.5794 315.97 33.6866C316.091 33.4923 316.276 33.3513 316.489 33.2902L318.432 32.7431C318.546 32.7111 318.665 32.703 318.782 32.7192C318.899 32.7353 319.011 32.7755 319.113 32.8373C319.216 32.8992 319.305 32.9815 319.377 33.0796C319.449 33.1777 319.501 33.2897 319.532 33.4091C319.548 33.4695 319.558 33.5315 319.562 33.5941L320.203 39.9004C320.227 40.1252 320.173 40.3518 320.051 40.5383C319.929 40.7249 319.746 40.8587 319.537 40.9153L317.11 41.5972C316.944 41.6424 316.769 41.6369 316.605 41.5813C316.488 41.7193 316.334 41.8185 316.164 41.8668L313.737 42.5487C313.622 42.5805 313.502 42.588 313.384 42.5708C313.266 42.5536 313.153 42.5119 313.051 42.4482C312.992 42.5573 312.913 42.6529 312.819 42.7296C312.724 42.8063 312.616 42.8625 312.501 42.8949L308.361 44.0578C308.196 44.1093 308.021 44.1093 307.856 44.0578C307.739 44.1873 307.59 44.279 307.425 44.3221L305.677 44.8137C305.529 44.8553 305.373 44.8565 305.225 44.8172C305.076 44.7778 304.94 44.6993 304.829 44.5891L304.821 44.5838Z" fill="#CC0000"/>
<path d="M305.437 43.8993L303.461 42.1364C303.36 42.0131 303.287 41.8664 303.249 41.7083H303.212L303.883 44.3513L302.023 44.8799L300.467 38.7666L302.215 38.2724L304.19 40.0352C304.294 40.1625 304.368 40.3138 304.405 40.4766H304.44L303.769 37.8336L305.628 37.305L307.185 43.384L305.437 43.8756V43.8993ZM311.239 39.8027L309.377 40.3313L309.566 41.0713L311.837 40.4317L312.236 41.9911L308.118 43.1487L306.559 37.0566L310.641 35.9095L310.808 37.5323L308.807 38.0953L309.017 38.912L310.876 38.3834L311.239 39.7947V39.8027ZM316.716 34.2047L318.659 33.6603L319.304 40.0035L316.878 40.6854L315.868 38.571L315.757 38.6027L315.911 40.9629L313.492 41.6396L311.022 35.8038L312.967 35.2593L314.274 38.5367L314.33 38.5208L314.13 34.9316L315.553 34.5325L317.082 37.7437H317.14L316.716 34.2047Z" fill="white"/>
</g>
<defs>
<linearGradient id="paint0_linear_136_130" x1="37.1306" y1="34" x2="37.1306" y2="107" gradientUnits="userSpaceOnUse">
<stop stop-color="#313131"/>
<stop offset="1"/>
</linearGradient>
<linearGradient id="paint1_linear_136_130" x1="276.131" y1="34" x2="276.131" y2="107" gradientUnits="userSpaceOnUse">
<stop stop-color="#313131"/>
<stop offset="1"/>
</linearGradient>
<linearGradient id="paint2_linear_136_130" x1="253" y1="80" x2="300" y2="80" gradientUnits="userSpaceOnUse">
<stop stop-color="#049713"/>
<stop offset="0.495" stop-color="white"/>
<stop offset="1" stop-color="#FF0000"/>
</linearGradient>
<clipPath id="clip0_136_130">
<rect width="100" height="100" fill="white" transform="translate(147.588) rotate(39.4852)"/>
</clipPath>
<clipPath id="clip1_136_130">
<rect width="31" height="31" fill="white" transform="translate(295 24)"/>
</clipPath>
</defs>
</svg>
