<svg width="203" height="60" viewBox="0 0 203 60" fill="none" xmlns="http://www.w3.org/2000/svg">
    <g clip-path="url(#clip0)">
        <path d="M195.199 60H7.09C3.18143 60 0 56.808 0 52.9005V7.089C0 3.18 3.18143 0 7.09 0H195.199C199.106 0 202.4 3.18 202.4 7.089V52.9005C202.4 56.808 199.106 60 195.199 60Z"
              fill="#A6A6A6"/>
        <path d="M200.947 52.902C200.947 56.076 198.378 58.647 195.199 58.647H7.08866C3.91173 58.647 1.33301 56.076 1.33301 52.902V7.08752C1.33301 3.91502 3.91173 1.33502 7.08866 1.33502H195.198C198.378 1.33502 200.946 3.91502 200.946 7.08752L200.947 52.902Z"
              fill="black"/>
        <path d="M45.169 29.6761C45.1256 24.8416 49.1256 22.4896 49.3085 22.3801C47.0431 19.0756 43.5318 18.6241 42.2979 18.5881C39.3489 18.2776 36.4883 20.3536 34.9861 20.3536C33.4538 20.3536 31.1405 18.6181 28.6472 18.6691C25.4388 18.7186 22.4373 20.5771 20.7911 23.4631C17.3938 29.3476 19.9275 37.9951 23.1824 42.7516C24.8106 45.0811 26.7132 47.6821 29.2034 47.5906C31.6397 47.4901 32.5498 46.0366 35.4898 46.0366C38.4029 46.0366 39.2575 47.5906 41.7972 47.5321C44.4119 47.4901 46.0581 45.1921 47.6293 42.8416C49.5109 40.1716 50.2665 37.5421 50.2965 37.4071C50.235 37.3861 45.2185 35.4706 45.169 29.6761Z"
              fill="white"/>
        <path d="M40.3712 15.4591C41.6815 13.8196 42.5781 11.5891 42.3292 9.32556C40.4326 9.40956 38.0608 10.6381 36.695 12.2416C35.4866 13.6546 34.4071 15.9706 34.686 18.1486C36.8164 18.3076 39.0038 17.0731 40.3712 15.4591Z"
              fill="white"/>
        <path d="M80.4272 47.2561H77.0224L75.1573 41.3926H68.6745L66.8979 47.2561H63.583L70.0058 27.2941H73.9729L80.4272 47.2561ZM74.5951 38.9326L72.9084 33.7201C72.73 33.1876 72.3957 31.9336 71.9024 29.9596H71.8424C71.646 30.8086 71.3297 32.0626 70.8949 33.7201L69.2382 38.9326H74.5951Z"
              fill="white"/>
        <path d="M96.9435 39.882C96.9435 42.33 96.2824 44.265 94.96 45.6855C93.7756 46.95 92.3048 47.5815 90.5492 47.5815C88.6541 47.5815 87.2928 46.9005 86.4637 45.5385H86.4037V53.121H83.2073V37.6005C83.2073 36.0615 83.1668 34.482 83.0889 32.862H85.9L86.0784 35.1435H86.1384C87.2043 33.4245 88.822 32.5665 90.993 32.5665C92.6901 32.5665 94.1069 33.237 95.2404 34.5795C96.3768 35.9235 96.9435 37.6905 96.9435 39.882ZM93.6871 39.999C93.6871 38.598 93.3723 37.443 92.7396 36.534C92.0484 35.586 91.1204 35.112 89.957 35.112C89.1684 35.112 88.4517 35.376 87.8115 35.8965C87.1699 36.4215 86.7501 37.107 86.5537 37.956C86.4547 38.352 86.4052 38.676 86.4052 38.931V41.331C86.4052 42.378 86.7261 43.2615 87.3678 43.983C88.0094 44.7045 88.843 45.0645 89.8685 45.0645C91.0724 45.0645 92.0095 44.5995 92.6796 43.6725C93.3513 42.744 93.6871 41.52 93.6871 39.999Z"
              fill="white"/>
        <path d="M113.492 39.882C113.492 42.33 112.831 44.265 111.507 45.6855C110.324 46.95 108.853 47.5815 107.097 47.5815C105.202 47.5815 103.841 46.9005 103.013 45.5385H102.954V53.121H99.7571V37.6005C99.7571 36.0615 99.7166 34.482 99.6387 32.862H102.45L102.628 35.1435H102.688C103.753 33.4245 105.37 32.5665 107.543 32.5665C109.238 32.5665 110.655 33.237 111.792 34.5795C112.924 35.9235 113.492 37.6905 113.492 39.882ZM110.235 39.999C110.235 38.598 109.919 37.443 109.286 36.534C108.595 35.586 107.67 35.112 106.505 35.112C105.715 35.112 105 35.376 104.358 35.8965C103.717 36.4215 103.298 37.107 103.102 37.956C103.005 38.352 102.954 38.676 102.954 38.931V41.331C102.954 42.378 103.274 43.2615 103.913 43.983C104.555 44.703 105.388 45.0645 106.417 45.0645C107.621 45.0645 108.558 44.5995 109.228 43.6725C109.9 42.744 110.235 41.52 110.235 39.999Z"
              fill="white"/>
        <path d="M131.993 41.658C131.993 43.356 131.404 44.7375 130.221 45.804C128.921 46.9695 127.112 47.5515 124.786 47.5515C122.639 47.5515 120.918 47.1375 119.615 46.308L120.356 43.6425C121.759 44.4915 123.299 44.9175 124.977 44.9175C126.181 44.9175 127.118 44.6445 127.791 44.1015C128.461 43.5585 128.795 42.8295 128.795 41.9205C128.795 41.1105 128.519 40.428 127.966 39.8745C127.416 39.321 126.497 38.8065 125.213 38.331C121.72 37.0275 119.975 35.118 119.975 32.607C119.975 30.966 120.587 29.6205 121.812 28.5735C123.032 27.525 124.66 27.0015 126.696 27.0015C128.512 27.0015 130.02 27.318 131.224 27.9495L130.425 30.5565C129.3 29.9445 128.029 29.6385 126.606 29.6385C125.482 29.6385 124.603 29.916 123.974 30.468C123.441 30.9615 123.174 31.563 123.174 32.2755C123.174 33.0645 123.479 33.717 124.091 34.23C124.623 34.704 125.59 35.217 126.993 35.7705C128.71 36.462 129.971 37.2705 130.782 38.1975C131.59 39.1215 131.993 40.278 131.993 41.658Z"
              fill="white"/>
        <path d="M142.56 35.262H139.037V42.2505C139.037 44.028 139.658 44.916 140.902 44.916C141.474 44.916 141.947 44.8665 142.322 44.7675L142.411 47.196C141.781 47.4315 140.952 47.55 139.925 47.55C138.662 47.55 137.676 47.1645 136.964 46.395C136.255 45.624 135.898 44.331 135.898 42.5145V35.259H133.799V32.859H135.898V30.2235L139.037 29.2755V32.859H142.56V35.262Z"
              fill="white"/>
        <path d="M158.458 39.9405C158.458 42.153 157.825 43.9695 156.563 45.39C155.239 46.8525 153.482 47.5815 151.291 47.5815C149.18 47.5815 147.5 46.881 146.246 45.48C144.993 44.079 144.366 42.3105 144.366 40.179C144.366 37.9485 145.011 36.1215 146.305 34.701C147.596 33.279 149.338 32.568 151.528 32.568C153.639 32.568 155.338 33.2685 156.62 34.671C157.846 36.0315 158.458 37.788 158.458 39.9405ZM155.141 40.044C155.141 38.7165 154.858 37.578 154.284 36.6285C153.614 35.4795 152.656 34.9065 151.414 34.9065C150.129 34.9065 149.153 35.481 148.483 36.6285C147.909 37.5795 147.626 38.736 147.626 40.104C147.626 41.4315 147.909 42.57 148.483 43.518C149.174 44.667 150.14 45.24 151.386 45.24C152.606 45.24 153.564 44.655 154.255 43.488C154.845 42.5205 155.141 41.37 155.141 40.044Z"
              fill="white"/>
        <path d="M168.848 35.6745C168.531 35.616 168.194 35.586 167.84 35.586C166.716 35.586 165.846 36.0105 165.234 36.861C164.702 37.611 164.435 38.559 164.435 39.7035V47.256H161.24L161.27 37.395C161.27 35.736 161.23 34.2255 161.15 32.8635H163.935L164.051 35.6175H164.14C164.477 34.671 165.009 33.909 165.738 33.3375C166.45 32.823 167.219 32.5665 168.048 32.5665C168.344 32.5665 168.611 32.5875 168.848 32.625V35.6745Z"
              fill="white"/>
        <path d="M183.142 39.3781C183.142 39.9511 183.105 40.434 183.025 40.8285H173.436C173.473 42.2505 173.937 43.338 174.827 44.088C175.635 44.7585 176.68 45.0945 177.964 45.0945C179.383 45.0945 180.679 44.868 181.844 44.4135L182.345 46.6336C180.983 47.2276 179.376 47.523 177.521 47.523C175.291 47.523 173.539 46.866 172.265 45.5535C170.994 44.241 170.356 42.4785 170.356 40.2675C170.356 38.097 170.949 36.2896 172.135 34.8481C173.376 33.3091 175.054 32.5396 177.165 32.5396C179.238 32.5396 180.808 33.3091 181.874 34.8481C182.718 36.0706 183.142 37.5826 183.142 39.3781ZM180.094 38.5485C180.115 37.6005 179.907 36.7815 179.473 36.09C178.92 35.2005 178.07 34.7565 176.926 34.7565C175.881 34.7565 175.031 35.1901 174.382 36.0601C173.85 36.7516 173.533 37.581 173.436 38.547H180.094V38.5485Z"
              fill="white"/>
        <path d="M73.5385 15.0135C73.5385 16.779 73.0092 18.108 71.9522 19.0005C70.9732 19.824 69.5819 20.2365 67.7798 20.2365C66.8863 20.2365 66.1216 20.1975 65.4814 20.1195V10.473C66.3165 10.338 67.2161 10.269 68.1876 10.269C69.9043 10.269 71.1981 10.6425 72.0707 11.3895C73.0482 12.234 73.5385 13.4415 73.5385 15.0135ZM71.8818 15.057C71.8818 13.9125 71.5789 13.035 70.9732 12.423C70.3675 11.8125 69.483 11.5065 68.318 11.5065C67.8233 11.5065 67.402 11.5395 67.0527 11.6085V18.942C67.2461 18.972 67.5999 18.9855 68.1141 18.9855C69.3165 18.9855 70.2446 18.651 70.8983 17.982C71.5519 17.313 71.8818 16.338 71.8818 15.057Z"
              fill="white"/>
        <path d="M82.3235 16.5556C82.3235 17.6431 82.0131 18.5341 81.3924 19.2331C80.7417 19.9516 79.8797 20.3101 78.8032 20.3101C77.7657 20.3101 76.9396 19.9666 76.3234 19.2766C75.7087 18.5881 75.4014 17.7196 75.4014 16.6726C75.4014 15.5776 75.7177 14.6791 76.3534 13.9816C76.9891 13.2841 77.8437 12.9346 78.9201 12.9346C79.9576 12.9346 80.7912 13.2781 81.4224 13.9666C82.0221 14.6356 82.3235 15.4996 82.3235 16.5556ZM80.6938 16.6066C80.6938 15.9541 80.5528 15.3946 80.2725 14.9281C79.9426 14.3641 79.4734 14.0821 78.8632 14.0821C78.232 14.0821 77.7522 14.3641 77.4224 14.9281C77.1405 15.3946 77.0011 15.9631 77.0011 16.6351C77.0011 17.2876 77.142 17.8471 77.4224 18.3136C77.7627 18.8776 78.2365 19.1596 78.8482 19.1596C79.4479 19.1596 79.9186 18.8731 80.2575 18.2986C80.5483 17.8231 80.6938 17.2591 80.6938 16.6066Z"
              fill="white"/>
        <path d="M94.1003 13.0786L91.8889 20.1496H90.4496L89.5335 17.0791C89.3012 16.3126 89.1123 15.5506 88.9653 14.7946H88.9368C88.8004 15.5716 88.6115 16.3321 88.3686 17.0791L87.3956 20.1496H85.9398L83.8604 13.0786H85.4751L86.2742 16.4401C86.4676 17.2351 86.6265 17.9926 86.7539 18.7096H86.7824C86.8993 18.1186 87.0927 17.3656 87.3656 16.4551L88.3686 13.0801H89.649L90.61 16.3831C90.8424 17.1886 91.0313 17.9641 91.1767 18.7111H91.2202C91.3267 17.9836 91.4871 17.2081 91.7 16.3831L92.5575 13.0801H94.1003V13.0786Z"
              fill="white"/>
        <path d="M102.246 20.1496H100.674V16.0996C100.674 14.8516 100.201 14.2276 99.2502 14.2276C98.7839 14.2276 98.4076 14.3986 98.1153 14.7421C97.8259 15.0856 97.679 15.4906 97.679 15.9541V20.1481H96.1077V15.0991C96.1077 14.4781 96.0883 13.8046 96.0508 13.0756H97.4316L97.5051 14.1811H97.5485C97.7315 13.8376 98.0043 13.5541 98.3626 13.3276C98.7884 13.0636 99.2652 12.9301 99.7869 12.9301C100.447 12.9301 100.995 13.1431 101.432 13.5706C101.974 14.0941 102.246 14.8756 102.246 15.9136V20.1496Z"
              fill="white"/>
        <path d="M106.58 20.1495H105.01V9.83405H106.58V20.1495Z" fill="white"/>
        <path d="M115.829 16.5556C115.829 17.6431 115.519 18.5341 114.898 19.2331C114.248 19.9516 113.384 20.3101 112.309 20.3101C111.27 20.3101 110.444 19.9666 109.829 19.2766C109.215 18.5881 108.907 17.7196 108.907 16.6726C108.907 15.5776 109.224 14.6791 109.859 13.9816C110.495 13.2841 111.35 12.9346 112.424 12.9346C113.463 12.9346 114.296 13.2781 114.928 13.9666C115.528 14.6356 115.829 15.4996 115.829 16.5556ZM114.198 16.6066C114.198 15.9541 114.057 15.3946 113.777 14.9281C113.448 14.3641 112.978 14.0821 112.369 14.0821C111.736 14.0821 111.257 14.3641 110.928 14.9281C110.646 15.3946 110.507 15.9631 110.507 16.6351C110.507 17.2876 110.648 17.8471 110.928 18.3136C111.269 18.8776 111.742 19.1596 112.354 19.1596C112.954 19.1596 113.423 18.8731 113.762 18.2986C114.054 17.8231 114.198 17.2591 114.198 16.6066Z"
              fill="white"/>
        <path d="M123.435 20.1496H122.024L121.907 19.3351H121.864C121.381 19.9846 120.693 20.3101 119.799 20.3101C119.132 20.3101 118.592 20.0956 118.186 19.6696C117.817 19.2826 117.633 18.8011 117.633 18.2296C117.633 17.3656 117.993 16.7071 118.717 16.2511C119.439 15.7951 120.456 15.5716 121.765 15.5821V15.4501C121.765 14.5186 121.276 14.0536 120.297 14.0536C119.6 14.0536 118.985 14.2291 118.454 14.5771L118.135 13.5451C118.792 13.1386 119.603 12.9346 120.559 12.9346C122.406 12.9346 123.333 13.9096 123.333 15.8596V18.4636C123.333 19.1701 123.367 19.7326 123.435 20.1496ZM121.804 17.7196V16.6291C120.071 16.5991 119.204 17.0746 119.204 18.0541C119.204 18.4231 119.303 18.6991 119.505 18.8836C119.708 19.0681 119.966 19.1596 120.273 19.1596C120.618 19.1596 120.94 19.0501 121.234 18.8326C121.529 18.6136 121.711 18.3361 121.778 17.9956C121.795 17.9191 121.804 17.8261 121.804 17.7196Z"
              fill="white"/>
        <path d="M132.363 20.1495H130.969L130.895 19.014H130.852C130.406 19.878 129.648 20.31 128.582 20.31C127.73 20.31 127.021 19.9755 126.459 19.3065C125.897 18.6375 125.616 17.769 125.616 16.7025C125.616 15.558 125.921 14.631 126.532 13.923C127.124 13.263 127.85 12.933 128.714 12.933C129.663 12.933 130.327 13.2525 130.705 13.893H130.735V9.83405H132.307V18.2445C132.307 18.933 132.325 19.5675 132.363 20.1495ZM130.735 17.1675V15.9885C130.735 15.7845 130.72 15.6195 130.691 15.4935C130.603 15.1155 130.412 14.7975 130.123 14.541C129.831 14.2845 129.478 14.1555 129.072 14.1555C128.486 14.1555 128.027 14.388 127.69 14.8545C127.355 15.321 127.186 15.9165 127.186 16.644C127.186 17.343 127.346 17.91 127.669 18.3465C128.009 18.8115 128.468 19.044 129.042 19.044C129.558 19.044 129.97 18.8505 130.283 18.462C130.586 18.1035 130.735 17.6715 130.735 17.1675Z"
              fill="white"/>
        <path d="M145.8 16.5556C145.8 17.6431 145.49 18.5341 144.869 19.2331C144.218 19.9516 143.358 20.3101 142.28 20.3101C141.244 20.3101 140.418 19.9666 139.8 19.2766C139.185 18.5881 138.878 17.7196 138.878 16.6726C138.878 15.5776 139.194 14.6791 139.83 13.9816C140.466 13.2841 141.32 12.9346 142.398 12.9346C143.434 12.9346 144.269 13.2781 144.899 13.9666C145.499 14.6356 145.8 15.4996 145.8 16.5556ZM144.172 16.6066C144.172 15.9541 144.031 15.3946 143.751 14.9281C143.419 14.3641 142.951 14.0821 142.34 14.0821C141.71 14.0821 141.23 14.3641 140.899 14.9281C140.617 15.3946 140.478 15.9631 140.478 16.6351C140.478 17.2876 140.619 17.8471 140.899 18.3136C141.239 18.8776 141.713 19.1596 142.325 19.1596C142.924 19.1596 143.397 18.8731 143.736 18.2986C144.025 17.8231 144.172 17.2591 144.172 16.6066Z"
              fill="white"/>
        <path d="M154.248 20.1496H152.678V16.0996C152.678 14.8516 152.205 14.2276 151.253 14.2276C150.786 14.2276 150.41 14.3986 150.119 14.7421C149.828 15.0856 149.683 15.4906 149.683 15.9541V20.1481H148.11V15.0991C148.11 14.4781 148.092 13.8046 148.055 13.0756H149.434L149.507 14.1811H149.551C149.735 13.8376 150.008 13.5541 150.365 13.3276C150.792 13.0636 151.268 12.9301 151.791 12.9301C152.449 12.9301 152.998 13.1431 153.434 13.5706C153.978 14.0941 154.248 14.8756 154.248 15.9136V20.1496Z"
              fill="white"/>
        <path d="M164.822 14.2561H163.092V17.6911C163.092 18.5641 163.399 19.0006 164.008 19.0006C164.29 19.0006 164.524 18.9766 164.708 18.9271L164.748 20.1196C164.438 20.2366 164.03 20.2951 163.528 20.2951C162.907 20.2951 162.425 20.1061 162.075 19.7281C161.724 19.3501 161.551 18.7141 161.551 17.8216V14.2561H160.518V13.0786H161.551V11.7826L163.09 11.3176V13.0771H164.82V14.2561H164.822Z"
              fill="white"/>
        <path d="M173.14 20.1495H171.567V16.1295C171.567 14.862 171.093 14.2275 170.144 14.2275C169.416 14.2275 168.918 14.595 168.645 15.33C168.599 15.4845 168.572 15.6735 168.572 15.8955V20.148H167.002V9.83405H168.572V14.0955H168.602C169.096 13.32 169.806 12.933 170.725 12.933C171.375 12.933 171.914 13.146 172.341 13.5735C172.873 14.106 173.14 14.898 173.14 15.945V20.1495Z"
              fill="white"/>
        <path d="M181.721 16.2795C181.721 16.5615 181.7 16.7985 181.662 16.992H176.95C176.971 17.691 177.196 18.2235 177.632 18.5925C178.031 18.9225 178.545 19.0875 179.175 19.0875C179.872 19.0875 180.508 18.9765 181.081 18.753L181.327 19.845C180.656 20.136 179.868 20.2815 178.955 20.2815C177.86 20.2815 176.998 19.959 176.375 19.314C175.748 18.669 175.438 17.8035 175.438 16.7175C175.438 15.651 175.727 14.763 176.31 14.055C176.919 13.299 177.742 12.921 178.781 12.921C179.797 12.921 180.569 13.299 181.091 14.055C181.513 14.655 181.721 15.3975 181.721 16.2795ZM180.222 15.873C180.234 15.4065 180.13 15.0045 179.917 14.6655C179.644 14.229 179.229 14.01 178.667 14.01C178.154 14.01 177.736 14.223 177.417 14.6505C177.156 14.991 177.001 15.3975 176.95 15.873H180.222Z"
              fill="white"/>
    </g>
    <defs>
        <clipPath id="clip0">
            <rect width="202.4" height="60" fill="white"/>
        </clipPath>
    </defs>
</svg>
