<svg width="204" height="60" viewBox="0 0 204 60" fill="none" xmlns="http://www.w3.org/2000/svg">
    <g clip-path="url(#clip0)">
        <path fill-rule="evenodd" clip-rule="evenodd"
              d="M195.878 60H7.53665C3.38288 60 0 56.6185 0 52.5V7.5C0 3.36658 3.38288 0 7.53665 0H195.878C200.028 0 203.415 3.36658 203.415 7.5V52.5C203.415 56.6185 200.028 60 195.878 60Z"
              fill="black"/>
        <path fill-rule="evenodd" clip-rule="evenodd"
              d="M195.878 1.20075C199.362 1.20075 202.213 4.03242 202.213 7.5V52.5C202.213 55.9676 199.381 58.7993 195.878 58.7993H7.53665C4.05273 58.7993 1.20122 55.9676 1.20122 52.5V7.5C1.20122 4.03242 4.03401 1.20075 7.53665 1.20075H195.878ZM195.878 0H7.53665C3.38288 0 0 3.38155 0 7.5V52.5C0 56.6334 3.38288 60 7.53665 60H195.878C200.028 60 203.415 56.6334 203.415 52.5V7.5C203.415 3.38155 200.028 0 195.878 0Z"
              fill="#A6A6A6"/>
        <path d="M107.16 19.8479C105.801 19.8479 104.656 19.3729 103.751 18.4377C102.853 17.5287 102.351 16.2756 102.374 14.9963C102.374 13.631 102.838 12.4751 103.751 11.5587C104.653 10.6235 105.798 10.1484 107.156 10.1484C108.5 10.1484 109.645 10.6235 110.565 11.5587C111.478 12.505 111.942 13.6609 111.942 14.9963C111.927 16.3654 111.463 17.5213 110.565 18.434C109.663 19.3766 108.518 19.8479 107.16 19.8479ZM66.7411 19.8479C65.4126 19.8479 64.26 19.3804 63.317 18.4564C62.3815 17.5362 61.9062 16.3729 61.9062 15.0001C61.9062 13.6272 62.3815 12.4639 63.317 11.5437C64.2413 10.6198 65.3939 10.1522 66.7411 10.1522C67.3997 10.1522 68.0396 10.2831 68.6533 10.5487C69.2558 10.8068 69.746 11.1584 70.109 11.5886L70.1988 11.6971L69.1847 12.6921L69.0799 12.5686C68.5074 11.8878 67.7402 11.5549 66.7261 11.5549C65.8205 11.5549 65.0309 11.8766 64.3798 12.5125C63.7249 13.1522 63.3919 13.9901 63.3919 15.0038C63.3919 16.0175 63.7249 16.8554 64.3798 17.4951C65.0309 18.131 65.8205 18.4527 66.7261 18.4527C67.6916 18.4527 68.5036 18.131 69.136 17.4951C69.5103 17.121 69.7423 16.5973 69.8246 15.9352H66.5727V14.5362H71.2204L71.2391 14.6634C71.2728 14.8991 71.3065 15.1422 71.3065 15.3666C71.3065 16.6572 70.9173 17.7008 70.1464 18.4714C69.2708 19.3841 68.1257 19.8479 66.7411 19.8479ZM120.482 19.6497H119.049L114.659 12.6285L114.696 13.8928V19.6459H113.263V10.3504H114.899L114.943 10.4215L119.071 17.035L119.034 15.7744V10.3504H120.482V19.6497ZM96.39 19.6497H94.938V11.7494H92.4196V10.3504H98.9047V11.7494H96.3862V19.6497H96.39ZM91.2371 19.6497H89.7889V10.3504H91.2371V19.6497ZM83.0979 19.6497H81.6497V11.7494H79.1313V10.3504H85.6164V11.7494H83.0979V19.6497ZM78.2145 19.6347H72.6611V10.3504H78.2145V11.7494H74.1131V14.3006H77.814V15.6846H74.1131V18.2357H78.2145V19.6347ZM104.813 17.4764C105.461 18.1235 106.247 18.4489 107.16 18.4489C108.099 18.4489 108.866 18.131 109.506 17.4764C110.142 16.8405 110.464 16.0063 110.464 15.0001C110.464 13.9938 110.142 13.1559 109.51 12.5237C108.862 11.8766 108.073 11.5512 107.164 11.5512C106.224 11.5512 105.457 11.8691 104.821 12.5237C104.185 13.1597 103.863 13.9938 103.863 15.0001C103.863 16.0063 104.181 16.8442 104.813 17.4764Z"
              fill="white"/>
        <path fill-rule="evenodd" clip-rule="evenodd"
              d="M102.239 32.6334C98.7029 32.6334 95.8364 35.3154 95.8364 39.0149C95.8364 42.6807 98.7216 45.3965 102.239 45.3965C105.775 45.3965 108.642 42.6957 108.642 39.0149C108.642 35.3154 105.775 32.6334 102.239 32.6334ZM102.239 42.8678C100.304 42.8678 98.6392 41.2668 98.6392 39C98.6392 36.6995 100.308 35.1321 102.239 35.1321C104.174 35.1321 105.839 36.6995 105.839 39C105.843 41.2817 104.174 42.8678 102.239 42.8678ZM88.2698 32.6334C84.7335 32.6334 81.867 35.3154 81.867 39.0149C81.867 42.6807 84.7522 45.3965 88.2698 45.3965C91.8061 45.3965 94.6726 42.6957 94.6726 39.0149C94.6726 35.3154 91.8024 32.6334 88.2698 32.6334ZM88.2698 42.8678C86.3351 42.8678 84.6699 41.2668 84.6699 39C84.6699 36.6995 86.3388 35.1321 88.2698 35.1321C90.2045 35.1321 91.8697 36.6995 91.8697 39C91.8697 41.2817 90.2045 42.8678 88.2698 42.8678ZM71.6472 34.5822V37.283H78.1323C77.934 38.798 77.4326 39.9164 76.6654 40.6832C75.7149 41.6334 74.248 42.6658 71.6622 42.6658C67.6768 42.6658 64.5596 39.4488 64.5596 35.465C64.5596 31.4812 67.6768 28.2643 71.6622 28.2643C73.8139 28.2643 75.3819 29.1134 76.5457 30.1982L78.4617 28.283C76.8451 26.7344 74.6933 25.5486 71.6772 25.5486C66.2099 25.5486 61.6221 30 61.6221 35.4501C61.6221 40.9152 66.2062 45.3516 71.6772 45.3516C74.6297 45.3516 76.8451 44.3865 78.5964 42.5685C80.3814 40.7842 80.9464 38.2668 80.9464 36.2356C80.9464 35.6034 80.8978 35.0349 80.7968 34.5523H71.6435C71.6472 34.5486 71.6472 34.5822 71.6472 34.5822ZM139.638 36.6845C139.103 35.2518 137.486 32.6184 134.171 32.6184C130.885 32.6184 128.153 35.2032 128.153 39C128.153 42.5835 130.855 45.3815 134.489 45.3815C137.408 45.3815 139.107 43.5972 139.806 42.5498L137.64 41.0985C136.921 42.1645 135.922 42.864 134.504 42.864C133.071 42.864 132.068 42.2132 131.402 40.9301L139.937 37.3952C139.937 37.399 139.638 36.6845 139.638 36.6845ZM130.934 38.8167C130.866 36.3516 132.85 35.0985 134.268 35.0985C135.387 35.0985 136.319 35.6483 136.637 36.4488L130.934 38.8167ZM124 45H126.803V26.2518H124V45ZM119.397 34.0511H119.296C118.663 33.2992 117.462 32.6184 115.928 32.6184C112.743 32.6184 109.809 35.4202 109.809 39.0187C109.809 42.6022 112.728 45.3703 115.928 45.3703C117.443 45.3703 118.663 44.6857 119.296 43.9189H119.397V44.8354C119.397 47.2705 118.095 48.5835 115.995 48.5835C114.278 48.5835 113.211 47.3491 112.777 46.3167L110.341 47.3341C111.041 49.0174 112.908 51.1009 115.991 51.1009C119.277 51.1009 122.061 49.167 122.061 44.4501V33H119.412V34.0511C119.416 34.0511 119.397 34.0511 119.397 34.0511ZM116.179 42.8678C114.244 42.8678 112.627 41.2518 112.627 39.0187C112.627 36.7668 114.244 35.1359 116.179 35.1359C118.095 35.1359 119.58 36.7855 119.58 39.0187C119.599 41.2518 118.098 42.8678 116.179 42.8678ZM152.762 26.2518H146.06V45H148.862V37.9002H152.765C155.868 37.9002 158.917 35.6521 158.917 32.0835C158.917 28.5149 155.879 26.2518 152.762 26.2518ZM152.844 35.2817H148.859V28.8478H152.844C154.943 28.8478 156.13 30.5798 156.13 32.0648C156.13 33.5349 154.928 35.2817 152.844 35.2817ZM170.151 32.5997C168.116 32.5997 166.016 33.5012 165.148 35.465L167.633 36.4975C168.168 35.465 169.148 35.1134 170.185 35.1134C171.637 35.1134 173.104 35.9812 173.138 37.5299V37.7281C172.636 37.4438 171.536 37.0099 170.219 37.0099C167.536 37.0099 164.815 38.4763 164.815 41.2256C164.815 43.7431 167.015 45.3591 169.467 45.3591C171.349 45.3591 172.385 44.5099 173.033 43.5261H173.134V44.9775H175.836V37.7955C175.836 34.4513 173.351 32.5997 170.151 32.5997ZM169.8 42.8678C168.883 42.8678 167.599 42.4189 167.599 41.2668C167.599 39.8154 169.201 39.2655 170.567 39.2655C171.802 39.2655 172.385 39.5311 173.119 39.8977C172.917 41.581 171.495 42.8528 169.8 42.8678ZM185.692 33L182.474 41.1321H182.373L179.039 33H176.023L181.026 44.3678L178.174 50.6857H181.093L188.791 33H185.692ZM160.463 45H163.266V26.2518H160.463V45Z"
              fill="white"/>
        <path fill-rule="evenodd" clip-rule="evenodd"
              d="M15.6575 11.3005C15.2234 11.768 14.9727 12.4825 14.9727 13.4177V46.586C14.9727 47.5212 15.2234 48.2356 15.6724 48.6845L15.7884 48.7855L34.3793 30.202V29.7868L15.7735 11.1995L15.6575 11.3005Z"
              fill="url(#paint0_linear)"/>
        <path fill-rule="evenodd" clip-rule="evenodd"
              d="M40.565 36.4151L34.3643 30.2169V29.783L40.565 23.5847L40.6997 23.667L48.0343 27.8341C50.1336 29.0161 50.1336 30.9688 48.0343 32.1658L40.6997 36.3328L40.565 36.4151Z"
              fill="url(#paint1_linear)"/>
        <path fill-rule="evenodd" clip-rule="evenodd"
              d="M40.6986 36.3329L34.3631 30L15.6562 48.6995C16.3411 49.4327 17.4899 49.515 18.7734 48.8005L40.6986 36.3329Z"
              fill="url(#paint2_linear)"/>
        <path fill-rule="evenodd" clip-rule="evenodd"
              d="M40.6986 23.6671L18.7734 11.2182C17.4899 10.4851 16.3373 10.5861 15.6562 11.3192L34.3631 30L40.6986 23.6671Z"
              fill="url(#paint3_linear)"/>
        <path opacity="0.2" fill-rule="evenodd" clip-rule="evenodd"
              d="M40.5645 36.1982L18.7891 48.5649C17.5729 49.2644 16.4877 49.2157 15.7879 48.5798L15.6719 48.6958L15.7879 48.7968C16.4877 49.4289 17.5729 49.4813 18.7891 48.7818L40.7142 36.3329L40.5645 36.1982Z"
              fill="black"/>
        <path opacity="0.12" fill-rule="evenodd" clip-rule="evenodd"
              d="M48.0339 31.9489L40.5459 36.1983L40.6806 36.3329L48.0152 32.1658C49.0667 31.5673 49.5831 30.7818 49.5831 30C49.5195 30.7182 48.9844 31.399 48.0339 31.9489Z"
              fill="black"/>
        <path opacity="0.25" fill-rule="evenodd" clip-rule="evenodd"
              d="M18.7747 11.4352L48.0344 28.0511C48.9849 28.5861 49.52 29.2856 49.6023 30C49.6023 29.2182 49.0859 28.4327 48.0344 27.8342L18.7747 11.2182C16.6753 10.0175 14.9727 11.02 14.9727 13.4177V13.6347C14.9727 11.2332 16.6753 10.2494 18.7747 11.4352Z"
              fill="white"/>
    </g>
    <defs>
        <linearGradient id="paint0_linear" x1="32.7118" y1="13.0598" x2="2.93392" y2="20.9973"
                        gradientUnits="userSpaceOnUse">
            <stop stop-color="#00A0FF"/>
            <stop offset="0.00657" stop-color="#00A1FF"/>
            <stop offset="0.2601" stop-color="#00BEFF"/>
            <stop offset="0.5122" stop-color="#00D2FF"/>
            <stop offset="0.7604" stop-color="#00DFFF"/>
            <stop offset="1" stop-color="#00E3FF"/>
        </linearGradient>
        <linearGradient id="paint1_linear" x1="50.772" y1="30" x2="14.4623" y2="30" gradientUnits="userSpaceOnUse">
            <stop stop-color="#FFE000"/>
            <stop offset="0.4087" stop-color="#FFBD00"/>
            <stop offset="0.7754" stop-color="#FFA500"/>
            <stop offset="1" stop-color="#FF9C00"/>
        </linearGradient>
        <linearGradient id="paint2_linear" x1="37.2536" y1="33.446" x2="13.3608" y2="73.6755"
                        gradientUnits="userSpaceOnUse">
            <stop stop-color="#FF3A44"/>
            <stop offset="1" stop-color="#C31162"/>
        </linearGradient>
        <linearGradient id="paint3_linear" x1="10.9456" y1="0.268208" x2="21.6052" y2="18.2353"
                        gradientUnits="userSpaceOnUse">
            <stop stop-color="#32A071"/>
            <stop offset="0.0685" stop-color="#2DA771"/>
            <stop offset="0.4762" stop-color="#15CF74"/>
            <stop offset="0.8009" stop-color="#06E775"/>
            <stop offset="1" stop-color="#00F076"/>
        </linearGradient>
        <clipPath id="clip0">
            <rect width="203.415" height="60" fill="white"/>
        </clipPath>
    </defs>
</svg>
