<svg width="137" height="137" viewBox="0 0 137 137" fill="none" xmlns="http://www.w3.org/2000/svg">
<rect width="137" height="137" fill="white"/>
<path d="M21.6248 20.625H37.2497V36.25H21.6248V20.625Z" fill="black"/>
<path d="M52.8749 5V51.875H6V5H52.8749ZM45.0624 12.8125H13.8125V44.0625H45.0624V12.8125ZM37.2499 98.75H21.625V114.375H37.2499V98.75Z" fill="black"/>
<path d="M52.8749 83.125V130H6V83.125H52.8749ZM13.8125 90.9375V122.188H45.0624V90.9375H13.8125ZM99.7498 20.625H115.375V36.25H99.7498V20.625Z" fill="black"/>
<path d="M84.1248 5V51.875H131V5H84.1248ZM123.187 12.8125V44.0625H91.9373V12.8125H123.187ZM68.4999 12.8125V5H76.3123V20.625H68.4999V36.25H60.6874V12.8125H68.4999ZM68.4999 51.875V36.25H76.3123V51.875H68.4999ZM52.8749 67.5V59.6875H60.6874V51.875H68.4999V67.5H76.3123V59.6875H115.375V67.5H84.1248V75.3125H60.6874V67.5H52.8749ZM52.8749 67.5V75.3125H21.625V67.5H13.8125V75.3125H6V59.6875H29.4375V67.5H52.8749ZM131 75.3125H123.187V59.6875H131V75.3125ZM123.187 75.3125H115.375V90.9375H131V83.125H123.187V75.3125ZM91.9373 75.3125H107.562V83.125H99.7498V90.9375H91.9373V75.3125ZM107.562 98.75V90.9375H99.7498V98.75H91.9373V106.563H76.3123V114.375H99.7498V98.75H107.562ZM107.562 98.75H131V106.563H115.375V114.375H107.562V98.75ZM76.3123 90.9375V98.75H84.1248V83.125H60.6874V90.9375H76.3123Z" fill="black"/>
<path d="M60.6873 98.7499H68.4997V122.187H99.7497V130H60.6873V98.7499ZM131 114.375V130H107.562V122.187H123.187V114.375H131Z" fill="black"/>
</svg>
