<svg width="302" height="303" viewBox="0 0 302 303" fill="none" xmlns="http://www.w3.org/2000/svg">
<path d="M150.759 2.34375C150.759 3.64853 150.663 9.32676 150.518 14.9808L150.277 25.25L149.146 28.6327C148.544 30.4933 148.014 32.0397 147.99 32.088C147.966 32.1122 146.135 31.2906 143.92 30.2275C140.717 28.6811 139.922 28.3911 140.042 28.7536C140.114 29.0193 140.957 30.8074 141.873 32.7646C142.812 34.6976 143.486 36.389 143.366 36.4856C143.269 36.5823 141.559 37.2347 139.561 37.9354C137.586 38.6361 135.804 39.2885 135.611 39.3851C135.25 39.5784 135.563 39.6993 140.403 41.4148C141.8 41.8981 143.077 42.4055 143.269 42.5021C143.486 42.6471 143.125 43.6378 141.728 46.6339C140.717 48.7844 139.922 50.5725 139.97 50.6208C140.018 50.6449 141.8 49.8476 143.944 48.8086C146.111 47.7696 147.917 47.0205 147.99 47.1414C148.086 47.2622 148.399 48.132 148.736 49.0985C149.218 50.5483 149.314 51.2973 149.314 53.6411V56.4681L143.293 59.9476L137.273 63.427L137.345 71.4732L137.393 79.5435L144.209 83.482L151 87.4447L157.815 83.482L164.607 79.5435L164.655 71.4732L164.727 63.427L158.707 59.9476L152.686 56.4681V53.6411C152.686 51.2973 152.782 50.5483 153.264 49.0985C153.601 48.132 153.914 47.2622 154.01 47.1414C154.083 47.0205 155.889 47.7696 158.056 48.8086C160.2 49.8476 161.982 50.6449 162.03 50.6208C162.078 50.5725 161.283 48.7844 160.272 46.6339C158.875 43.6378 158.514 42.6471 158.731 42.5021C158.923 42.4055 160.2 41.8981 161.596 41.4148C166.437 39.6993 166.75 39.5784 166.389 39.3851C166.196 39.2885 164.438 38.6361 162.439 37.9354C160.465 37.2347 158.731 36.5823 158.634 36.4856C158.514 36.389 159.188 34.6976 160.127 32.7646C161.043 30.8074 161.885 29.0193 161.958 28.7536C162.078 28.3911 161.283 28.6811 158.08 30.2275C155.865 31.2906 154.034 32.1122 154.01 32.088C153.986 32.0397 153.456 30.4933 152.854 28.6327L151.722 25.25L151.482 14.9808C151.337 9.32676 151.241 3.64853 151.241 2.34375C151.241 0.942315 151.144 -2.97073e-05 151 -2.97073e-05C150.855 -2.97073e-05 150.759 0.942315 150.759 2.34375Z" fill="#A80101" fill-opacity="0.19"/>
<path d="M44.4571 44.701C45.2518 45.5709 49.5145 50.1135 53.9217 54.7769L61.9172 63.3063L63.3381 66.3025L64.7349 69.2986L60.7372 70.7001C58.5215 71.4491 56.6431 72.1498 56.5226 72.2465C56.4263 72.319 57.6786 72.8747 59.2922 73.4304C60.9298 74.0104 62.8083 74.6869 63.5067 74.9285L64.7349 75.4118L62.8324 79.3986C61.7968 81.5733 60.9298 83.4096 60.9298 83.4821C60.9298 83.5304 62.736 82.7089 64.9276 81.6458C67.1432 80.5826 68.9735 79.7611 69.0217 79.8094C69.0699 79.8577 69.7201 81.6216 70.4667 83.7479C71.2132 85.8501 71.8876 87.7106 71.9839 87.8797C72.0561 88.0489 72.7786 86.3575 73.5493 84.1345C74.3199 81.9115 75.0183 80.0269 75.1147 79.9302C75.1869 79.8336 76.1262 80.1718 77.1858 80.6793C78.8234 81.4525 79.4014 81.8874 80.9909 83.6271C82.2191 84.956 82.7971 85.7776 82.7249 86.0434C82.6526 86.2608 81.8338 89.257 80.9187 92.6881L79.2329 98.9462L84.8201 104.552C87.9027 107.645 90.6 110.182 90.7927 110.182C90.9853 110.158 94.4533 109.264 98.4992 108.176L105.845 106.195L107.819 98.8254C108.903 94.7661 109.794 91.2867 109.818 91.0934C109.818 90.9001 107.289 88.1938 104.207 85.101L98.6196 79.4953L92.3821 81.1867C88.9624 82.1049 85.9761 82.9264 85.7593 82.9989C85.4944 83.0714 84.6756 82.4915 83.351 81.2592C81.6171 79.6644 81.1836 79.0845 80.4129 77.4415C79.9072 76.3783 79.57 75.436 79.6664 75.3635C79.7627 75.2668 81.6412 74.5661 83.8568 73.7929C86.0724 73.0197 87.7582 72.2948 87.5896 72.2223C87.4211 72.1257 85.5667 71.4491 83.4715 70.7001C81.3522 69.951 79.5941 69.2986 79.5459 69.2503C79.4978 69.202 80.3166 67.3656 81.3762 65.1426C82.4359 62.9438 83.2547 61.1316 83.2065 61.1316C83.1343 61.1316 81.304 62.0015 79.1365 63.0405L75.1628 64.9493L74.7053 63.7171C74.4404 63.0163 73.766 61.1316 73.188 59.5127C72.6101 57.8697 72.0802 56.6132 72.008 56.734C71.9116 56.8307 71.2132 58.7154 70.4426 60.9142L69.0458 64.9252L66.0595 63.5237L63.0732 62.0982L54.596 54.0761C49.9239 49.6785 45.4204 45.4017 44.5534 44.6044L42.988 43.1304L44.4571 44.701Z" fill="#A80101" fill-opacity="0.19"/>
<path d="M248.825 52.6989L238.903 62.1223L235.916 63.5237L232.954 64.9252L231.557 60.9142C230.787 58.7154 230.088 56.8307 229.992 56.734C229.92 56.6132 229.39 57.8697 228.812 59.5127C228.234 61.1316 227.56 63.0163 227.295 63.7171L226.837 64.9493L222.864 63.0405C220.696 62.0015 218.866 61.1316 218.794 61.1316C218.745 61.1316 219.564 62.9438 220.624 65.1426C221.683 67.3656 222.502 69.202 222.454 69.2503C222.406 69.2986 220.648 69.951 218.529 70.7001C216.433 71.4491 214.579 72.1257 214.41 72.2223C214.242 72.2948 215.928 73.0197 218.143 73.7929C220.359 74.5661 222.237 75.2668 222.334 75.3635C222.43 75.436 222.093 76.3783 221.587 77.4415C220.696 79.302 220.118 79.9785 217.349 82.4431L216.626 83.0714L214.579 82.5156C213.447 82.2257 210.485 81.4041 207.956 80.7276L203.38 79.4953L197.793 85.101C194.711 88.1938 192.182 90.9001 192.182 91.0934C192.206 91.2867 193.097 94.7661 194.181 98.8254L196.156 106.195L203.501 108.176C207.547 109.264 211.015 110.158 211.207 110.182C211.4 110.182 214.097 107.645 217.18 104.552L222.767 98.9462L221.081 92.6881C220.166 89.257 219.347 86.2608 219.275 86.0434C219.203 85.7776 219.781 84.956 221.009 83.6271C222.599 81.8874 223.177 81.4525 224.814 80.6793C225.874 80.1718 226.813 79.8336 226.885 79.9302C226.982 80.0269 227.68 81.9115 228.451 84.1345C229.221 86.3575 229.944 88.0489 230.016 87.8797C230.113 87.7106 230.787 85.8501 231.533 83.7479C232.28 81.6216 232.93 79.8577 232.978 79.8094C233.027 79.7611 234.857 80.5826 237.072 81.6458C239.264 82.7089 241.07 83.5304 241.07 83.4821C241.07 83.4096 240.203 81.5733 239.168 79.3745C237.289 75.4843 237.265 75.3635 237.771 75.1702C238.06 75.0735 239.962 74.397 241.985 73.6962C243.984 72.9714 245.574 72.319 245.477 72.2465C245.357 72.1498 243.479 71.4491 241.287 70.6759L237.289 69.2503L238.686 66.2783L240.083 63.3063L248.078 54.801C252.486 50.1135 256.724 45.595 257.543 44.7493C258.338 43.9278 258.94 43.2513 258.892 43.2513C258.819 43.2513 254.292 47.5039 248.825 52.6989Z" fill="#A80101" fill-opacity="0.19"/>
<path d="M190.448 54.3417C187.726 58.8843 187.485 59.44 184.018 68.2594L180.405 77.4171L176.72 81.8872C174.697 84.3518 172.891 86.5506 172.723 86.768C172.554 87.0097 170.483 94.5243 168.099 103.464L163.788 119.726L158.923 132.049C156.274 138.814 153.986 144.638 153.866 144.952C153.625 145.532 153.625 145.532 152.324 144.251L151 142.946L149.844 144.082L148.664 145.242L148.182 143.961C147.893 143.26 145.75 137.848 143.438 131.928L139.175 121.176L134.527 104.117L129.903 87.0338L126.435 82.8537C124.533 80.5341 122.775 78.4319 122.534 78.142C122.293 77.852 120.439 73.4544 118.416 68.3319C114.9 59.4159 114.635 58.8601 111.985 54.4142C110.468 51.8771 109.192 49.8233 109.168 49.8716C109.12 49.9199 109.674 52.3362 110.396 55.2357C111.696 60.3824 111.817 60.769 115.598 69.4676L119.499 78.4077L120.077 84.6659L120.655 90.8999L129.181 105.687L137.706 120.451L143.028 132.798C145.942 139.588 148.351 145.218 148.351 145.314C148.351 145.387 147.604 145.459 146.665 145.459H144.979V147.175C144.979 148.769 144.955 148.866 144.497 148.721C143.871 148.528 124.051 139.902 121.739 138.839C120.824 138.404 113.43 134.248 105.339 129.584L90.648 121.127L84.3864 120.523L78.149 119.919L69.2383 116.005C60.5684 112.211 60.1831 112.066 55.0534 110.762C52.1635 110.037 49.7552 109.481 49.707 109.505C49.6588 109.553 51.7059 110.858 54.2587 112.38C58.714 115.063 59.2439 115.304 68.0582 118.808L77.2338 122.432L81.9781 126.419L86.7466 130.382L102.93 134.707L119.09 139.008L131.252 143.84C137.947 146.474 143.727 148.769 144.088 148.89L144.786 149.156L143.63 150.316L142.474 151.5L143.775 152.829C145.051 154.134 145.051 154.134 144.473 154.375C144.16 154.496 138.645 156.671 132.215 159.232L120.535 163.871L103.629 168.486L86.7225 173.101L82.0504 177.016L77.3542 180.954L69.5514 184.023C65.2887 185.714 60.9537 187.43 59.9663 187.865C58.3528 188.541 49.0086 194.026 49.4421 194.026C49.5384 194.026 52.019 193.422 54.9089 192.697C60.0627 191.392 60.448 191.272 69.3105 187.406L78.3898 183.467L84.4828 182.911L90.5758 182.38L105.194 173.875C113.238 169.211 120.848 164.934 122.1 164.379C123.353 163.847 128.916 161.431 134.455 159.014C139.97 156.622 144.618 154.641 144.738 154.641C144.883 154.641 144.979 155.293 144.979 156.091V157.541H146.785C147.773 157.541 148.592 157.565 148.592 157.613C148.592 157.734 147.098 161.237 142.474 171.869L138.019 182.211L129.349 197.361L120.704 212.535L120.174 218.575L119.644 224.592L115.67 233.75C111.841 242.666 111.696 243.076 110.42 248.199C109.698 251.074 109.096 253.539 109.096 253.636C109.096 253.732 110.348 251.751 111.865 249.238C114.514 244.84 114.779 244.26 118.367 235.224L122.124 225.8L126.026 221.088L129.951 216.377L134.238 200.188L138.525 183.999L143.582 171.072C146.376 163.968 148.688 158.096 148.76 158.048C148.808 157.975 149.338 158.41 149.916 158.99L151 160.053L152.204 158.869C152.854 158.217 153.456 157.734 153.504 157.806C153.577 157.879 155.816 163.46 158.49 170.226L163.33 182.525L167.159 196.684C169.279 204.464 171.35 212.076 171.759 213.598L172.53 216.377L176.455 221.137L180.381 225.873L183.993 235.103C187.485 244.019 187.702 244.478 190.4 249.02C191.965 251.606 193.241 253.684 193.289 253.636C193.314 253.611 192.76 251.195 192.037 248.271C190.737 243.076 190.616 242.738 186.787 233.895L182.862 224.834L182.308 218.672L181.754 212.535L173.325 197.892L164.872 183.274L159.525 170.927C156.587 164.137 154.107 158.362 154.034 158.072C153.866 157.565 153.938 157.541 155.431 157.541H157.021V155.97C157.021 155.1 157.093 154.399 157.189 154.399C157.261 154.399 162.825 156.791 169.52 159.691L181.706 165.007L196.781 173.657L211.881 182.331L217.95 182.887L224.043 183.443L233.099 187.381C241.937 191.247 242.274 191.368 247.452 192.673C250.366 193.398 252.774 193.954 252.798 193.93C252.847 193.881 250.775 192.601 248.199 191.054C243.671 188.324 243.213 188.106 234.351 184.627L225.199 181.002L220.455 177.04L215.711 173.077L199.431 168.704L183.151 164.354L171.229 159.643C158.61 154.641 157.454 154.158 157.285 154.013C157.213 153.94 157.695 153.36 158.345 152.708L159.525 151.5L158.466 150.413C157.888 149.833 157.454 149.301 157.526 149.253C157.623 149.156 161.909 147.441 175.564 142.076C181.85 139.588 182.91 139.274 196.517 135.552C204.392 133.426 211.954 131.348 213.278 130.986L215.735 130.285L220.383 126.371C222.96 124.22 225.223 122.408 225.416 122.311C225.609 122.239 229.847 120.572 234.808 118.59C243.478 115.159 244.032 114.893 248.415 112.236C250.944 110.713 252.895 109.457 252.798 109.457C252.702 109.457 250.246 110.061 247.356 110.786C242.25 112.066 241.889 112.211 233.219 115.981L224.332 119.871L218.071 120.475L211.809 121.079L197.119 129.584C182.476 138.09 182.404 138.114 174.722 141.472C160.898 147.489 157.189 149.084 157.117 149.084C157.069 149.084 157.021 148.262 157.021 147.271V145.459H155.576C154.781 145.459 154.131 145.363 154.131 145.218C154.131 145.097 156.105 140.433 158.49 134.9C160.898 129.343 163.186 124.027 163.571 123.109C163.981 122.166 168.219 114.507 173.036 106.074L181.754 90.7307L182.308 84.69L182.837 78.6735L186.787 69.4917C190.664 60.5515 190.785 60.1891 192.085 55.0183C192.808 52.0946 193.362 49.6783 193.338 49.6541C193.289 49.63 191.989 51.7321 190.448 54.3417Z" fill="#A80101" fill-opacity="0.19"/>
<path d="M146.689 101.387L142.475 115.063L142.86 116.416C143.703 119.509 150.88 142.56 151 142.56C151.12 142.56 158.297 119.509 159.14 116.416L159.525 115.063L155.311 101.387C152.999 93.872 151.072 87.7105 151 87.7105C150.928 87.7105 149.001 93.872 146.689 101.387Z" fill="#A80101" fill-opacity="0.19"/>
<path d="M105.965 106.364C105.965 106.412 107.964 110.23 110.42 114.893C112.877 119.533 115.887 125.259 117.091 127.603L119.331 131.88L131.95 138.549C138.886 142.221 144.618 145.193 144.666 145.145C144.714 145.097 141.752 139.346 138.091 132.387L131.445 119.726L127.182 117.479C124.846 116.271 119.162 113.25 114.514 110.786C106.206 106.388 105.965 106.267 105.965 106.364Z" fill="#A80101" fill-opacity="0.19"/>
<path d="M194.084 107.258C193.217 107.741 187.558 110.738 181.537 113.927L170.579 119.726L163.908 132.387C160.248 139.346 157.285 145.097 157.334 145.145C157.382 145.193 163.113 142.221 170.049 138.549L182.669 131.88L184.909 127.603C186.113 125.259 189.123 119.533 191.58 114.893C194.036 110.23 196.035 106.412 196.035 106.364C196.035 106.219 195.553 106.437 194.084 107.258Z" fill="#A80101" fill-opacity="0.19"/>
<path d="M39.207 136.084C39.1348 136.278 38.5086 138.041 37.8102 140.023C37.1118 142.028 36.4616 143.744 36.3652 143.84C36.2689 143.961 34.5831 143.285 32.6565 142.342C30.7057 141.424 28.9236 140.578 28.6587 140.506C28.2975 140.385 28.5864 141.183 30.1278 144.396C31.1874 146.619 32.0062 148.456 31.9821 148.48C31.934 148.504 30.3927 149.035 28.5383 149.639L25.1667 150.775L14.9314 151.017C9.29601 151.162 3.63652 151.258 2.36013 151.258C0.939235 151.258 0 151.355 0 151.5C0 151.645 0.939235 151.742 2.36013 151.742C3.63652 151.742 9.29601 151.838 14.9314 151.983L25.1667 152.225L28.5383 153.361C30.3927 153.965 31.934 154.496 31.9821 154.52C32.0062 154.545 31.1874 156.381 30.1278 158.604C28.5864 161.817 28.2975 162.615 28.6587 162.494C28.9236 162.422 30.7057 161.576 32.6565 160.658C34.5831 159.715 36.2689 159.039 36.3652 159.16C36.4616 159.256 37.1118 160.972 37.8102 162.977C38.5086 164.959 39.1589 166.747 39.2552 166.94C39.4479 167.302 39.6405 166.843 41.2782 162.132C41.7839 160.73 42.2656 159.425 42.3619 159.256C42.5064 159.039 43.5179 159.401 46.4801 160.803C48.6235 161.817 50.4056 162.615 50.4538 162.567C50.4778 162.518 49.6831 160.73 48.6475 158.58C47.612 156.405 46.8413 154.593 46.9376 154.52C47.0581 154.472 47.901 154.134 48.8161 153.795C50.2852 153.288 50.9113 153.191 53.3919 153.191H56.2818L59.7498 159.232L63.2177 165.273L71.2373 165.2L79.281 165.152L83.2066 158.314L87.1562 151.5L83.2066 144.662L79.281 137.848L71.2373 137.8L63.2177 137.727L59.7498 143.768L56.2818 149.809H53.3919C50.9113 149.809 50.2852 149.712 48.8161 149.205C47.901 148.866 47.0581 148.528 46.9376 148.48C46.8413 148.407 47.612 146.595 48.6475 144.42C49.6831 142.27 50.4778 140.482 50.4538 140.434C50.4056 140.385 48.6235 141.183 46.4801 142.197C43.4456 143.623 42.5064 143.985 42.3619 143.72C42.2415 143.55 41.6153 141.835 40.941 139.902C39.5683 135.988 39.3997 135.577 39.207 136.084Z" fill="#A80101" fill-opacity="0.19"/>
<path d="M262.094 137.027C261.83 137.751 261.203 139.467 260.722 140.868C260.216 142.27 259.734 143.575 259.638 143.744C259.494 143.961 258.482 143.599 255.52 142.197C253.376 141.183 251.594 140.385 251.546 140.434C251.522 140.482 252.317 142.27 253.352 144.42C254.388 146.595 255.159 148.407 255.062 148.48C254.942 148.528 254.099 148.866 253.184 149.205C251.715 149.712 251.089 149.809 248.608 149.809H245.718L242.25 143.768L238.782 137.727L230.763 137.8L222.719 137.848L218.793 144.662L214.844 151.5L218.793 158.314L222.719 165.152L230.763 165.2L238.782 165.273L242.25 159.232L245.718 153.191H248.608C251.089 153.191 251.715 153.288 253.184 153.795C254.099 154.134 254.942 154.472 255.062 154.52C255.159 154.593 254.388 156.405 253.352 158.58C252.317 160.73 251.522 162.518 251.546 162.567C251.594 162.615 253.376 161.817 255.52 160.803C258.482 159.401 259.494 159.039 259.638 159.256C259.734 159.425 260.216 160.73 260.722 162.132C262.359 166.843 262.552 167.302 262.745 166.94C262.841 166.747 263.491 164.959 264.19 162.977C264.888 160.972 265.538 159.256 265.635 159.16C265.731 159.039 267.417 159.715 269.343 160.658C271.294 161.576 273.076 162.422 273.341 162.494C273.702 162.615 273.413 161.817 271.872 158.604C270.812 156.381 269.994 154.545 270.018 154.52C270.066 154.496 271.607 153.965 273.462 153.361L276.833 152.225L287.068 151.983C292.704 151.838 298.363 151.742 299.664 151.742C301.061 151.742 302 151.645 302 151.5C302 151.355 301.061 151.258 299.664 151.258C298.363 151.258 292.704 151.162 287.068 151.017L276.833 150.775L273.462 149.639C271.607 149.035 270.066 148.504 270.018 148.48C269.994 148.456 270.812 146.619 271.872 144.396C273.413 141.183 273.702 140.385 273.341 140.506C273.076 140.578 271.294 141.424 269.343 142.342C267.417 143.285 265.731 143.961 265.635 143.84C265.538 143.744 264.888 142.004 264.19 140.023C263.491 138.017 262.841 136.253 262.745 136.06C262.624 135.818 262.408 136.133 262.094 137.027Z" fill="#A80101" fill-opacity="0.19"/>
<path d="M107.651 145.097C104.135 146.208 98.1621 148.093 94.357 149.253C90.5519 150.413 87.4211 151.428 87.4211 151.5C87.4211 151.572 90.4797 152.563 94.2366 153.723C97.9695 154.859 104.087 156.767 107.843 157.927L114.659 160.054L116.032 159.667C119.259 158.773 142.089 151.621 142.089 151.5C142.089 151.428 138.597 150.292 134.335 148.987C130.048 147.658 124.003 145.773 120.896 144.807C117.79 143.84 114.972 143.043 114.635 143.067C114.298 143.091 111.167 144.01 107.651 145.097Z" fill="#A80101" fill-opacity="0.19"/>
<path d="M183.994 143.889C182.597 144.348 176.624 146.208 170.7 148.045C164.751 149.881 159.911 151.428 159.911 151.5C159.911 151.621 182.741 158.773 185.968 159.667L187.341 160.054L194.157 157.927C197.914 156.767 204.031 154.859 207.763 153.723C211.52 152.563 214.579 151.572 214.579 151.5C214.579 151.428 211.448 150.413 207.643 149.253C203.838 148.093 197.817 146.208 194.229 145.097C190.665 143.961 187.462 143.067 187.124 143.067C186.787 143.067 185.39 143.454 183.994 143.889Z" fill="#A80101" fill-opacity="0.19"/>
<path d="M131.854 164.475L119.331 171.12L117.091 175.397C115.887 177.741 112.877 183.443 110.42 188.082C107.988 192.746 106.013 196.563 106.037 196.612C106.085 196.636 109.891 194.655 114.539 192.214C119.163 189.75 124.846 186.729 127.182 185.521L131.445 183.274L138.019 170.733C145.244 157.009 144.859 157.782 144.57 157.806C144.474 157.806 138.742 160.803 131.854 164.475Z" fill="#A80101" fill-opacity="0.19"/>
<path d="M157.286 157.976C157.334 158.096 160.344 163.847 163.981 170.758L170.555 183.274L174.818 185.521C177.154 186.729 182.838 189.75 187.462 192.214C192.11 194.655 195.915 196.636 195.963 196.612C195.987 196.563 194.012 192.746 191.58 188.082C189.123 183.443 186.113 177.741 184.909 175.397L182.669 171.12L170.194 164.524C163.33 160.875 157.599 157.855 157.454 157.806C157.31 157.758 157.237 157.831 157.286 157.976Z" fill="#A80101" fill-opacity="0.19"/>
<path d="M147.05 172.836C144.955 179.625 143.053 185.811 142.86 186.584L142.475 187.937L146.689 201.613C149.001 209.128 150.928 215.289 151 215.289C151.072 215.289 152.999 209.128 155.311 201.613L159.525 187.937L159.14 186.584C158.297 183.491 151.12 160.44 151 160.44C150.928 160.44 149.17 166.022 147.05 172.836Z" fill="#A80101" fill-opacity="0.19"/>
<path d="M84.8442 198.424L79.2329 204.054L81.015 210.699L82.8212 217.343L82.171 218.068C79.7145 220.847 79.0402 221.427 77.1858 222.321C76.1262 222.828 75.1869 223.167 75.1147 223.07C75.0183 222.973 74.3199 221.089 73.5493 218.866C72.7786 216.643 72.0561 214.951 71.9839 215.12C71.8876 215.289 71.2132 217.15 70.4667 219.252C69.7201 221.378 69.0699 223.142 69.0217 223.191C68.9735 223.239 67.1432 222.417 64.9276 221.354C62.736 220.291 60.9298 219.47 60.9298 219.518C60.9298 219.59 61.7968 221.427 62.8324 223.601L64.7349 227.588L63.5067 228.072C62.8083 228.313 60.9298 228.99 59.2922 229.57C57.6786 230.125 56.4263 230.681 56.5226 230.754C56.6431 230.85 58.5215 231.551 60.7131 232.324L64.7108 233.75L63.314 236.722L61.9172 239.694L53.9217 248.223C49.5145 252.887 45.2518 257.429 44.4571 258.299L42.988 259.87L44.5534 258.396C45.4204 257.598 49.9239 253.322 54.596 248.924L63.0732 240.902L66.0595 239.476L69.0458 238.075L70.4426 242.086C71.2132 244.285 71.9116 246.169 72.008 246.266C72.0802 246.387 72.6101 245.13 73.188 243.487C73.766 241.868 74.4404 239.984 74.7053 239.283L75.1628 238.051L79.1365 239.96C81.304 240.999 83.1343 241.868 83.2065 241.868C83.2547 241.868 82.4359 240.056 81.3762 237.857C80.3166 235.634 79.4978 233.798 79.5459 233.75C79.5941 233.701 81.3522 233.049 83.4715 232.3C85.5667 231.551 87.4211 230.874 87.5896 230.778C87.7582 230.705 86.0724 229.98 83.8568 229.207C81.6412 228.434 79.7627 227.733 79.6664 227.637C79.57 227.564 79.9072 226.622 80.4129 225.559C81.304 223.698 81.882 223.022 84.6515 220.557L85.374 219.929L87.4211 220.484C88.553 220.774 91.5152 221.596 94.0439 222.272L98.6196 223.505L104.207 217.899C107.289 214.806 109.818 212.1 109.818 211.907C109.794 211.713 108.903 208.234 107.819 204.175L105.845 196.805L98.4992 194.824C94.4533 193.736 90.9853 192.842 90.7927 192.818C90.6 192.818 87.9027 195.355 84.8442 198.424Z" fill="#A80101" fill-opacity="0.19"/>
<path d="M203.38 194.848L196.156 196.805L194.181 204.175C193.097 208.234 192.206 211.713 192.182 211.907C192.182 212.1 194.711 214.806 197.793 217.899L203.38 223.505L209.618 221.813C213.038 220.895 216.024 220.074 216.241 220.001C216.506 219.929 217.324 220.509 218.649 221.741C220.383 223.336 220.816 223.916 221.587 225.559C222.093 226.622 222.43 227.564 222.334 227.637C222.237 227.733 220.359 228.434 218.143 229.207C215.928 229.98 214.242 230.705 214.41 230.778C214.579 230.874 216.433 231.551 218.529 232.3C220.648 233.049 222.406 233.701 222.454 233.75C222.502 233.798 221.683 235.634 220.624 237.857C219.564 240.056 218.745 241.868 218.794 241.868C218.866 241.868 220.696 240.999 222.864 239.96L226.837 238.051L227.295 239.283C227.56 239.984 228.234 241.868 228.812 243.487C229.39 245.13 229.92 246.387 229.992 246.266C230.088 246.169 230.787 244.285 231.557 242.086L232.954 238.051L235.917 239.476L238.903 240.878L247.404 248.9C252.052 253.322 256.58 257.598 257.447 258.396L259.012 259.87L257.543 258.299C256.748 257.429 252.486 252.887 248.078 248.223L240.083 239.694L238.662 236.698L237.265 233.701L241.263 232.3C243.479 231.551 245.357 230.85 245.477 230.754C245.574 230.681 244.321 230.125 242.708 229.57C241.07 228.99 239.192 228.313 238.493 228.072L237.265 227.588L239.168 223.601C240.203 221.427 241.07 219.59 241.07 219.518C241.07 219.47 239.264 220.291 237.072 221.354C234.857 222.417 233.027 223.239 232.978 223.191C232.93 223.142 232.28 221.378 231.533 219.252C230.787 217.15 230.113 215.289 230.016 215.12C229.944 214.951 229.221 216.643 228.451 218.866C227.68 221.089 226.982 222.973 226.885 223.07C226.813 223.167 225.874 222.828 224.814 222.321C223.177 221.548 222.599 221.113 221.009 219.373C219.998 218.261 219.203 217.222 219.251 217.053C219.323 216.884 220.142 213.888 221.081 210.409L222.767 204.054L217.18 198.448C213.375 194.63 211.424 192.818 211.087 192.842C210.822 192.867 207.354 193.761 203.38 194.848Z" fill="#A80101" fill-opacity="0.19"/>
<path d="M144.136 219.518L137.393 223.456L137.345 231.527L137.273 239.573L143.293 243.052L149.314 246.532V249.359C149.314 251.703 149.218 252.452 148.736 253.901C148.399 254.868 148.086 255.738 147.99 255.859C147.917 255.979 146.111 255.23 143.944 254.191C141.8 253.152 140.018 252.355 139.97 252.379C139.922 252.428 140.717 254.216 141.728 256.366C143.125 259.362 143.486 260.353 143.269 260.498C143.077 260.595 141.8 261.102 140.403 261.585C135.563 263.301 135.25 263.422 135.611 263.615C135.804 263.711 137.586 264.364 139.561 265.065C141.559 265.765 143.269 266.418 143.366 266.514C143.486 266.611 142.812 268.302 141.873 270.235C140.957 272.193 140.114 273.981 140.042 274.246C139.922 274.609 140.717 274.319 143.92 272.772C146.135 271.709 147.966 270.888 147.99 270.912C148.014 270.96 148.544 272.507 149.146 274.367L150.277 277.75L150.518 288.019C150.663 293.673 150.759 299.351 150.759 300.632C150.759 302.058 150.855 303 151 303C151.144 303 151.241 302.058 151.241 300.632C151.241 299.351 151.337 293.673 151.482 288.019L151.722 277.75L152.854 274.367C153.456 272.507 153.986 270.96 154.01 270.912C154.034 270.888 155.865 271.709 158.08 272.772C161.283 274.319 162.078 274.609 161.958 274.246C161.885 273.981 161.043 272.193 160.127 270.235C159.188 268.302 158.514 266.611 158.634 266.514C158.731 266.418 160.465 265.765 162.439 265.065C164.438 264.364 166.196 263.711 166.389 263.615C166.75 263.422 166.437 263.301 161.596 261.585C160.2 261.102 158.923 260.595 158.731 260.498C158.514 260.353 158.875 259.362 160.272 256.366C161.283 254.216 162.078 252.428 162.03 252.379C161.982 252.355 160.2 253.152 158.056 254.191C155.889 255.23 154.083 255.979 154.01 255.859C153.914 255.738 153.601 254.868 153.264 253.901C152.782 252.452 152.686 251.703 152.686 249.359V246.532L158.707 243.052L164.727 239.573L164.655 231.527L164.607 223.456L157.767 219.494C154.01 217.319 150.928 215.531 150.904 215.555C150.904 215.555 147.845 217.343 144.136 219.518Z" fill="#A80101" fill-opacity="0.19"/>
<path d="M147.82 42.7172C147.82 43.6731 147.748 47.8334 147.64 51.976L147.459 59.4999L146.612 61.9784C146.162 63.3416 145.765 64.4746 145.747 64.51C145.729 64.5277 144.359 63.9258 142.701 63.1468C140.304 62.0138 139.71 61.8014 139.8 62.0669C139.854 62.2617 140.485 63.5717 141.17 65.0057C141.872 66.4219 142.377 67.6612 142.287 67.732C142.215 67.8028 140.935 68.2808 139.439 68.7942C137.962 69.3076 136.628 69.7856 136.484 69.8564C136.213 69.998 136.448 70.0865 140.07 71.3435C141.115 71.6975 142.071 72.0693 142.215 72.1401C142.377 72.2464 142.107 72.9722 141.061 75.1674C140.304 76.743 139.71 78.053 139.746 78.0885C139.782 78.1062 141.115 77.5219 142.719 76.7607C144.341 75.9995 145.693 75.4507 145.747 75.5392C145.819 75.6277 146.054 76.265 146.306 76.9731C146.666 78.0353 146.738 78.5841 146.738 80.3014V82.3727L142.233 84.9219L137.727 87.4712L137.781 93.3664L137.817 99.2794L142.918 102.165L148 105.068L153.1 102.165L158.183 99.2794L158.219 93.3664L158.273 87.4712L153.767 84.9219L149.262 82.3727V80.3014C149.262 78.5841 149.334 78.0353 149.694 76.9731C149.946 76.265 150.181 75.6277 150.253 75.5392C150.307 75.4507 151.658 75.9995 153.281 76.7607C154.884 77.5219 156.218 78.1062 156.254 78.0885C156.29 78.053 155.696 76.743 154.939 75.1674C153.893 72.9722 153.623 72.2464 153.785 72.1401C153.929 72.0693 154.884 71.6975 155.93 71.3435C159.552 70.0865 159.787 69.998 159.516 69.8564C159.372 69.7856 158.056 69.3076 156.561 68.7942C155.083 68.2808 153.785 67.8028 153.713 67.732C153.623 67.6612 154.128 66.4219 154.83 65.0057C155.515 63.5717 156.146 62.2617 156.2 62.0669C156.29 61.8014 155.696 62.0138 153.299 63.1468C151.64 63.9258 150.271 64.5277 150.253 64.51C150.235 64.4746 149.838 63.3416 149.388 61.9784L148.541 59.4999L148.36 51.976C148.252 47.8334 148.18 43.6731 148.18 42.7172C148.18 41.6904 148.108 40.9999 148 40.9999C147.892 40.9999 147.82 41.6904 147.82 42.7172Z" fill="white" fill-opacity="0.19"/>
<path d="M68.2693 73.7512C68.864 74.3885 72.054 77.7168 75.3521 81.1335L81.3355 87.3828L82.3988 89.578L83.4441 91.7732L80.4524 92.8C78.7943 93.3488 77.3886 93.8622 77.2985 93.933C77.2264 93.9861 78.1635 94.3933 79.371 94.8005C80.5966 95.2254 82.0023 95.7211 82.5249 95.8981L83.4441 96.2522L82.0203 99.1732C81.2454 100.767 80.5966 102.112 80.5966 102.165C80.5966 102.2 81.9482 101.599 83.5883 100.82C85.2463 100.041 86.616 99.4388 86.6521 99.4742C86.6881 99.5096 87.1747 100.802 87.7334 102.36C88.2921 103.9 88.7967 105.263 88.8688 105.387C88.9229 105.511 89.4635 104.272 90.0403 102.643C90.617 101.014 91.1396 99.6335 91.2117 99.5627C91.2658 99.4919 91.9687 99.7397 92.7616 100.112C93.9872 100.678 94.4197 100.997 95.6092 102.271C96.5283 103.245 96.9608 103.847 96.9068 104.042C96.8527 104.201 96.2399 106.396 95.5551 108.91L94.2935 113.495L98.4747 117.602C100.782 119.868 102.8 121.727 102.944 121.727C103.088 121.71 105.684 121.055 108.711 120.258L114.208 118.806L115.686 113.407C116.497 110.433 117.164 107.883 117.182 107.742C117.182 107.6 115.29 105.617 112.983 103.351L108.802 99.244L104.134 100.483C101.575 101.156 99.3398 101.758 99.1776 101.811C98.9793 101.864 98.3666 101.439 97.3754 100.536C96.0777 99.368 95.7533 98.9431 95.1766 97.7393C94.7982 96.9603 94.5458 96.2699 94.6179 96.2168C94.69 96.146 96.0958 95.6326 97.7538 95.066C99.4119 94.4995 100.673 93.9684 100.547 93.9153C100.421 93.8445 99.0334 93.3488 97.4655 92.8C95.8795 92.2512 94.5639 91.7732 94.5278 91.7378C94.4918 91.7024 95.1045 90.357 95.8975 88.7282C96.6905 87.1172 97.3033 85.7895 97.2672 85.7895C97.2131 85.7895 95.8435 86.4268 94.2214 87.1881L91.2478 88.5866L90.9053 87.6838C90.7071 87.1704 90.2025 85.7895 89.7699 84.6034C89.3374 83.3995 88.9409 82.479 88.8868 82.5675C88.8147 82.6383 88.2921 84.0192 87.7154 85.6302L86.6701 88.5689L84.4353 87.5421L82.2005 86.4976L75.8567 80.6201C72.3604 77.3981 68.9902 74.2646 68.3414 73.6804L67.1699 72.6005L68.2693 73.7512Z" fill="white" fill-opacity="0.19"/>
<path d="M221.207 79.611L213.782 86.5153L211.547 87.5421L209.33 88.5689L208.285 85.6302C207.708 84.0192 207.186 82.6383 207.113 82.5675C207.059 82.479 206.663 83.3995 206.23 84.6034C205.798 85.7895 205.293 87.1704 205.095 87.6838L204.752 88.5866L201.779 87.1881C200.157 86.4268 198.787 85.7895 198.733 85.7895C198.697 85.7895 199.31 87.1172 200.103 88.7282C200.896 90.357 201.508 91.7024 201.472 91.7378C201.436 91.7732 200.121 92.2512 198.535 92.8C196.967 93.3488 195.579 93.8445 195.453 93.9153C195.327 93.9684 196.588 94.4995 198.246 95.066C199.904 95.6326 201.31 96.146 201.382 96.2168C201.454 96.2699 201.202 96.9603 200.824 97.7393C200.157 99.1024 199.724 99.5981 197.652 101.404L197.111 101.864L195.579 101.457C194.732 101.245 192.515 100.643 190.623 100.147L187.199 99.244L183.018 103.351C180.711 105.617 178.818 107.6 178.818 107.742C178.836 107.883 179.503 110.433 180.314 113.407L181.792 118.806L187.289 120.258C190.317 121.055 192.912 121.71 193.056 121.727C193.2 121.727 195.219 119.868 197.526 117.602L201.707 113.495L200.445 108.91C199.76 106.396 199.148 104.201 199.093 104.042C199.039 103.847 199.472 103.245 200.391 102.271C201.581 100.997 202.013 100.678 203.239 100.112C204.032 99.7397 204.734 99.4919 204.789 99.5627C204.861 99.6335 205.383 101.014 205.96 102.643C206.537 104.272 207.077 105.511 207.131 105.387C207.204 105.263 207.708 103.9 208.267 102.36C208.826 100.802 209.312 99.5096 209.348 99.4742C209.384 99.4388 210.754 100.041 212.412 100.82C214.052 101.599 215.404 102.2 215.404 102.165C215.404 102.112 214.755 100.767 213.98 99.1555C212.574 96.3053 212.556 96.2168 212.935 96.0751C213.151 96.0043 214.575 95.5086 216.089 94.9952C217.584 94.4641 218.774 93.9861 218.702 93.933C218.612 93.8622 217.206 93.3488 215.566 92.7823L212.574 91.7378L213.619 89.5603L214.665 87.3828L220.648 81.1512C223.946 77.7168 227.118 74.4062 227.731 73.7866C228.326 73.1847 228.776 72.689 228.74 72.689C228.686 72.689 225.298 75.8048 221.207 79.611Z" fill="white" fill-opacity="0.19"/>
<path d="M177.52 80.8147C175.484 84.143 175.304 84.5501 172.708 91.0119L170.005 97.7214L167.248 100.997C165.734 102.802 164.382 104.413 164.256 104.573C164.13 104.75 162.58 110.255 160.796 116.806L157.57 128.72L153.929 137.749C151.947 142.706 150.235 146.972 150.145 147.202C149.964 147.627 149.964 147.627 148.991 146.689L148 145.733L147.135 146.565L146.252 147.415L145.891 146.476C145.675 145.963 144.071 141.998 142.341 137.66L139.151 129.782L135.673 117.284L132.212 104.767L129.617 101.705C128.193 100.005 126.878 98.465 126.697 98.2525C126.517 98.0401 125.13 94.8181 123.616 91.065C120.984 84.5324 120.786 84.1253 118.804 80.8678C117.668 79.009 116.713 77.5042 116.695 77.5396C116.659 77.575 117.074 79.3454 117.614 81.4698C118.587 85.2406 118.678 85.5238 121.507 91.897L124.427 98.4473L124.859 103.032L125.292 107.6L131.672 118.434L138.052 129.251L142.034 138.298C144.215 143.272 146.017 147.397 146.017 147.468C146.017 147.521 145.459 147.574 144.756 147.574H143.494V148.831C143.494 149.999 143.476 150.07 143.134 149.964C142.665 149.822 127.833 143.502 126.103 142.723C125.418 142.405 119.885 139.36 113.83 135.943L102.836 129.747L98.1501 129.304L93.4823 128.862L86.8141 125.994C80.326 123.214 80.0377 123.108 76.1989 122.152C74.0362 121.621 72.234 121.214 72.1979 121.231C72.1619 121.267 73.6938 122.223 75.6042 123.338C78.9383 125.303 79.3348 125.48 85.931 128.047L92.7975 130.703L96.3479 133.624L99.9163 136.527L112.027 139.696L124.12 142.847L133.222 146.388C138.232 148.318 142.557 149.999 142.827 150.088L143.35 150.283L142.485 151.132L141.62 152L142.593 152.974C143.548 153.93 143.548 153.93 143.116 154.107C142.882 154.195 138.754 155.788 133.942 157.665L125.202 161.064L112.55 164.445L99.8983 167.827L96.4019 170.695L92.8876 173.58L87.0483 175.829C83.8584 177.068 80.6144 178.325 79.8755 178.643C78.668 179.139 71.6753 183.158 71.9997 183.158C72.0718 183.158 73.9281 182.715 76.0908 182.184C79.9476 181.228 80.2359 181.14 86.8681 178.307L93.6625 175.421L98.2222 175.014L102.782 174.625L113.721 168.393C119.741 164.976 125.436 161.843 126.373 161.436C127.31 161.046 131.473 159.276 135.619 157.506C139.746 155.753 143.224 154.301 143.314 154.301C143.422 154.301 143.494 154.779 143.494 155.364V156.426H144.846C145.585 156.426 146.198 156.443 146.198 156.479C146.198 156.567 145.08 159.134 141.62 166.924L138.286 174.501L131.798 185.601L125.328 196.719L124.931 201.144L124.535 205.553L121.561 212.262C118.696 218.795 118.587 219.096 117.632 222.849C117.092 224.955 116.641 226.761 116.641 226.832C116.641 226.903 117.578 225.451 118.714 223.61C120.696 220.388 120.894 219.963 123.58 213.342L126.391 206.438L129.311 202.986L132.248 199.533L135.456 187.672L138.664 175.811L142.449 166.34C144.54 161.135 146.27 156.833 146.324 156.798C146.36 156.744 146.756 157.063 147.189 157.488L148 158.267L148.901 157.399C149.388 156.921 149.838 156.567 149.874 156.62C149.928 156.674 151.604 160.763 153.605 165.72L157.227 174.731L160.093 185.105C161.679 190.806 163.229 196.382 163.535 197.498L164.112 199.533L167.049 203.021L169.987 206.491L172.69 213.254C175.304 219.786 175.466 220.122 177.484 223.451C178.656 225.345 179.611 226.867 179.647 226.832C179.665 226.814 179.251 225.044 178.71 222.902C177.737 219.096 177.647 218.848 174.781 212.368L171.843 205.73L171.429 201.215L171.014 196.719L164.707 185.99L158.381 175.28L154.38 166.233C152.181 161.259 150.325 157.028 150.271 156.815C150.145 156.443 150.199 156.426 151.316 156.426H152.505V155.275C152.505 154.638 152.56 154.124 152.632 154.124C152.686 154.124 156.849 155.877 161.859 158.001L170.978 161.896L182.26 168.234L193.56 174.589L198.102 174.997L202.662 175.404L209.438 178.289C216.052 181.122 216.304 181.21 220.179 182.166C222.36 182.698 224.162 183.105 224.18 183.087C224.216 183.052 222.666 182.113 220.738 180.98C217.35 178.98 217.007 178.82 210.375 176.271L203.527 173.616L199.976 170.712L196.426 167.809L184.243 164.605L172.06 161.418L163.139 157.966C153.695 154.301 152.83 153.947 152.704 153.841C152.65 153.788 153.01 153.363 153.497 152.885L154.38 152L153.587 151.203C153.154 150.778 152.83 150.389 152.884 150.354C152.956 150.283 156.164 149.026 166.383 145.096C171.086 143.272 171.879 143.042 182.062 140.316C187.955 138.758 193.614 137.235 194.606 136.97L196.444 136.456L199.922 133.588C201.851 132.013 203.545 130.685 203.689 130.614C203.833 130.561 207.005 129.34 210.718 127.888C217.206 125.374 217.62 125.179 220.9 123.232C222.793 122.117 224.252 121.196 224.18 121.196C224.108 121.196 222.27 121.639 220.107 122.17C216.286 123.108 216.016 123.214 209.528 125.976L202.878 128.826L198.192 129.269L193.506 129.711L182.513 135.943C171.555 142.175 171.501 142.192 165.752 144.653C155.407 149.061 152.632 150.23 152.578 150.23C152.541 150.23 152.505 149.628 152.505 148.902V147.574H151.424C150.829 147.574 150.343 147.503 150.343 147.397C150.343 147.309 151.821 143.892 153.605 139.838C155.407 135.766 157.119 131.871 157.408 131.198C157.714 130.508 160.886 124.896 164.49 118.718L171.014 107.476L171.429 103.05L171.825 98.642L174.781 91.9147C177.683 85.3645 177.773 85.0989 178.746 81.3104C179.287 79.1683 179.701 77.398 179.683 77.3803C179.647 77.3626 178.674 78.9028 177.52 80.8147Z" fill="white" fill-opacity="0.19"/>
<path d="M144.774 115.283L141.62 125.303L141.908 126.295C142.539 128.561 147.91 145.45 148 145.45C148.09 145.45 153.461 128.561 154.092 126.295L154.38 125.303L151.226 115.283C149.496 109.777 148.054 105.263 148 105.263C147.946 105.263 146.504 109.777 144.774 115.283Z" fill="white" fill-opacity="0.19"/>
<path d="M114.298 118.93C114.298 118.965 115.794 121.763 117.632 125.179C119.471 128.578 121.723 132.774 122.624 134.491L124.3 137.625L133.744 142.511C138.935 145.202 143.224 147.379 143.26 147.344C143.296 147.309 141.079 143.095 138.34 137.997L133.366 128.72L130.176 127.074C128.428 126.188 124.174 123.976 120.696 122.17C114.478 118.948 114.298 118.859 114.298 118.93Z" fill="white" fill-opacity="0.19"/>
<path d="M180.242 119.585C179.593 119.939 175.358 122.134 170.852 124.471L162.652 128.72L157.66 137.997C154.92 143.095 152.704 147.309 152.74 147.344C152.776 147.379 157.065 145.202 162.255 142.511L171.699 137.625L173.375 134.491C174.276 132.774 176.529 128.578 178.367 125.179C180.206 121.763 181.702 118.965 181.702 118.93C181.702 118.824 181.341 118.983 180.242 119.585Z" fill="white" fill-opacity="0.19"/>
<path d="M64.3404 140.705C64.2863 140.847 63.8177 142.139 63.2951 143.591C62.7724 145.06 62.2858 146.317 62.2137 146.388C62.1416 146.477 60.8801 145.981 59.4383 145.29C57.9785 144.618 56.6448 143.998 56.4466 143.945C56.1762 143.856 56.3925 144.441 57.5459 146.795C58.3389 148.424 58.9517 149.769 58.9337 149.787C58.8976 149.805 57.7442 150.194 56.3565 150.637L53.8333 151.469L46.1738 151.646C41.9566 151.752 37.7214 151.823 36.7662 151.823C35.7029 151.823 35 151.894 35 152C35 152.106 35.7029 152.177 36.7662 152.177C37.7214 152.177 41.9566 152.248 46.1738 152.354L53.8333 152.531L56.3565 153.363C57.7442 153.806 58.8976 154.195 58.9337 154.213C58.9517 154.231 58.3389 155.576 57.5459 157.205C56.3925 159.559 56.1762 160.144 56.4466 160.055C56.6448 160.002 57.9785 159.382 59.4383 158.71C60.8801 158.019 62.1416 157.523 62.2137 157.612C62.2858 157.683 62.7724 158.94 63.2951 160.409C63.8177 161.861 64.3043 163.171 64.3764 163.312C64.5206 163.578 64.6648 163.242 65.8903 159.789C66.2687 158.763 66.6292 157.807 66.7013 157.683C66.8094 157.523 67.5664 157.789 69.7831 158.816C71.3871 159.559 72.7207 160.144 72.7568 160.108C72.7748 160.073 72.1801 158.763 71.4051 157.187C70.6301 155.594 70.0534 154.266 70.1255 154.213C70.2156 154.177 70.8464 153.93 71.5313 153.682C72.6306 153.31 73.0992 153.239 74.9555 153.239H77.1182L79.7134 157.665L82.3086 162.091L88.3101 162.038L94.3295 162.002L97.2672 156.992L100.223 152L97.2672 146.99L94.3295 141.998L88.3101 141.962L82.3086 141.909L79.7134 146.335L77.1182 150.761H74.9555C73.0992 150.761 72.6306 150.69 71.5313 150.318C70.8464 150.07 70.2156 149.822 70.1255 149.787C70.0534 149.734 70.6301 148.406 71.4051 146.813C72.1801 145.237 72.7748 143.927 72.7568 143.892C72.7207 143.856 71.3871 144.441 69.7831 145.184C67.5123 146.229 66.8094 146.494 66.7013 146.3C66.6112 146.176 66.1426 144.919 65.638 143.502C64.6107 140.634 64.4845 140.333 64.3404 140.705Z" fill="white" fill-opacity="0.19"/>
<path d="M231.137 141.396C230.939 141.927 230.47 143.184 230.11 144.211C229.731 145.237 229.371 146.193 229.299 146.317C229.191 146.477 228.434 146.211 226.217 145.184C224.613 144.441 223.279 143.856 223.243 143.892C223.225 143.927 223.82 145.237 224.595 146.813C225.37 148.406 225.946 149.734 225.874 149.787C225.784 149.822 225.153 150.07 224.469 150.318C223.369 150.69 222.901 150.761 221.044 150.761H218.882L216.287 146.335L213.691 141.909L207.69 141.962L201.67 141.998L198.733 146.99L195.777 152L198.733 156.992L201.67 162.002L207.69 162.038L213.691 162.091L216.287 157.665L218.882 153.239H221.044C222.901 153.239 223.369 153.31 224.469 153.682C225.153 153.93 225.784 154.177 225.874 154.213C225.946 154.266 225.37 155.594 224.595 157.187C223.82 158.763 223.225 160.073 223.243 160.108C223.279 160.144 224.613 159.559 226.217 158.816C228.434 157.789 229.191 157.523 229.299 157.683C229.371 157.807 229.731 158.763 230.11 159.789C231.335 163.242 231.479 163.578 231.624 163.312C231.696 163.171 232.182 161.861 232.705 160.409C233.228 158.94 233.714 157.683 233.786 157.612C233.858 157.523 235.12 158.019 236.562 158.71C238.021 159.382 239.355 160.002 239.553 160.055C239.824 160.144 239.607 159.559 238.454 157.205C237.661 155.576 237.048 154.231 237.066 154.213C237.102 154.195 238.256 153.806 239.643 153.363L242.167 152.531L249.826 152.354C254.043 152.248 258.279 152.177 259.252 152.177C260.297 152.177 261 152.106 261 152C261 151.894 260.297 151.823 259.252 151.823C258.279 151.823 254.043 151.752 249.826 151.646L242.167 151.469L239.643 150.637C238.256 150.194 237.102 149.805 237.066 149.787C237.048 149.769 237.661 148.424 238.454 146.795C239.607 144.441 239.824 143.856 239.553 143.945C239.355 143.998 238.021 144.618 236.562 145.29C235.12 145.981 233.858 146.477 233.786 146.388C233.714 146.317 233.228 145.043 232.705 143.591C232.182 142.122 231.696 140.829 231.624 140.688C231.533 140.511 231.371 140.741 231.137 141.396Z" fill="white" fill-opacity="0.19"/>
<path d="M115.56 147.309C112.929 148.123 108.459 149.504 105.612 150.354C102.764 151.203 100.421 151.947 100.421 152C100.421 152.053 102.71 152.779 105.521 153.629C108.315 154.461 112.893 155.859 115.704 156.709L120.804 158.267L121.832 157.984C124.247 157.329 141.332 152.088 141.332 152C141.332 151.947 138.719 151.115 135.529 150.159C132.321 149.185 127.797 147.804 125.472 147.096C123.147 146.388 121.039 145.804 120.786 145.822C120.534 145.839 118.191 146.512 115.56 147.309Z" fill="white" fill-opacity="0.19"/>
<path d="M172.691 146.423C171.645 146.76 167.176 148.123 162.742 149.468C158.291 150.814 154.668 151.947 154.668 152C154.668 152.088 171.753 157.329 174.168 157.984L175.196 158.267L180.296 156.709C183.107 155.859 187.685 154.461 190.479 153.629C193.29 152.779 195.579 152.053 195.579 152C195.579 151.947 193.236 151.203 190.388 150.354C187.541 149.504 183.035 148.123 180.35 147.309C177.683 146.477 175.286 145.822 175.033 145.822C174.781 145.822 173.736 146.105 172.691 146.423Z" fill="white" fill-opacity="0.19"/>
<path d="M133.672 161.507L124.301 166.375L122.625 169.509C121.724 171.226 119.471 175.404 117.633 178.803C115.812 182.22 114.334 185.017 114.352 185.052C114.389 185.07 117.236 183.618 120.714 181.83C124.175 180.024 128.428 177.812 130.176 176.926L133.366 175.28L138.286 166.092C143.693 156.036 143.404 156.603 143.188 156.621C143.116 156.621 138.827 158.816 133.672 161.507Z" fill="white" fill-opacity="0.19"/>
<path d="M152.704 156.745C152.74 156.833 154.993 161.046 157.714 166.11L162.634 175.28L165.824 176.926C167.572 177.812 171.825 180.024 175.286 181.83C178.764 183.618 181.612 185.07 181.648 185.052C181.666 185.017 180.188 182.22 178.368 178.803C176.529 175.404 174.276 171.226 173.375 169.509L171.699 166.375L162.364 161.542C157.227 158.869 152.938 156.656 152.83 156.621C152.722 156.585 152.668 156.638 152.704 156.745Z" fill="white" fill-opacity="0.19"/>
<path d="M145.044 167.632C143.476 172.607 142.053 177.139 141.908 177.705L141.62 178.697L144.774 188.717C146.504 194.222 147.946 198.737 148 198.737C148.054 198.737 149.496 194.222 151.226 188.717L154.38 178.697L154.092 177.705C153.461 175.439 148.09 158.55 148 158.55C147.946 158.55 146.63 162.64 145.044 167.632Z" fill="white" fill-opacity="0.19"/>
<path d="M98.4927 186.38L94.2935 190.505L95.6272 195.373L96.9789 200.242L96.4923 200.773C94.654 202.809 94.1494 203.234 92.7616 203.889C91.9687 204.26 91.2658 204.508 91.2117 204.437C91.1396 204.367 90.617 202.986 90.0403 201.357C89.4635 199.728 88.9229 198.489 88.8688 198.613C88.7967 198.737 88.2921 200.1 87.7334 201.64C87.1747 203.198 86.6881 204.49 86.6521 204.526C86.616 204.561 85.2463 203.959 83.5883 203.18C81.9482 202.401 80.5966 201.8 80.5966 201.835C80.5966 201.888 81.2454 203.234 82.0203 204.827L83.4441 207.748L82.5249 208.102C82.0023 208.279 80.5966 208.775 79.371 209.2C78.1635 209.607 77.2264 210.014 77.2985 210.067C77.3886 210.138 78.7943 210.651 80.4344 211.218L83.4261 212.262L82.3808 214.44L81.3355 216.617L75.3521 222.867C72.054 226.283 68.864 229.611 68.2693 230.249L67.1699 231.4L68.3414 230.32C68.9902 229.735 72.3604 226.602 75.8567 223.38L82.2005 217.502L84.4353 216.458L86.6701 215.431L87.7154 218.37C88.2921 219.981 88.8147 221.362 88.8868 221.433C88.9409 221.521 89.3374 220.6 89.7699 219.397C90.2025 218.211 90.7071 216.83 90.9053 216.316L91.2478 215.413L94.2214 216.812C95.8435 217.573 97.2131 218.211 97.2672 218.211C97.3033 218.211 96.6905 216.883 95.8975 215.272C95.1045 213.643 94.4918 212.298 94.5278 212.262C94.5639 212.227 95.8795 211.749 97.4655 211.2C99.0334 210.651 100.421 210.156 100.547 210.085C100.673 210.032 99.4119 209.5 97.7538 208.934C96.0958 208.367 94.69 207.854 94.6179 207.783C94.5458 207.73 94.7982 207.04 95.1766 206.261C95.8435 204.898 96.276 204.402 98.3486 202.596L98.8892 202.136L100.421 202.543C101.268 202.756 103.485 203.357 105.377 203.853L108.802 204.756L112.983 200.649C115.29 198.383 117.182 196.4 117.182 196.258C117.164 196.117 116.497 193.567 115.686 190.593L114.208 185.194L108.711 183.742C105.684 182.945 103.088 182.29 102.944 182.273C102.8 182.273 100.782 184.132 98.4927 186.38Z" fill="white" fill-opacity="0.19"/>
<path d="M187.199 183.76L181.792 185.194L180.314 190.593C179.503 193.567 178.836 196.117 178.818 196.258C178.818 196.4 180.711 198.383 183.018 200.649L187.199 204.756L191.867 203.517C194.426 202.844 196.66 202.242 196.823 202.189C197.021 202.136 197.634 202.561 198.625 203.464C199.923 204.632 200.247 205.057 200.824 206.261C201.202 207.04 201.454 207.73 201.382 207.783C201.31 207.854 199.904 208.367 198.246 208.934C196.588 209.5 195.327 210.032 195.453 210.085C195.579 210.156 196.967 210.651 198.535 211.2C200.121 211.749 201.436 212.227 201.472 212.262C201.508 212.298 200.896 213.643 200.103 215.272C199.31 216.883 198.697 218.211 198.733 218.211C198.787 218.211 200.157 217.573 201.779 216.812L204.752 215.413L205.095 216.316C205.293 216.83 205.798 218.211 206.23 219.397C206.663 220.6 207.059 221.521 207.113 221.433C207.186 221.362 207.708 219.981 208.285 218.37L209.33 215.413L211.547 216.458L213.782 217.485L220.144 223.362C223.622 226.602 227.01 229.735 227.659 230.32L228.83 231.4L227.731 230.249C227.136 229.611 223.946 226.283 220.648 222.867L214.665 216.617L213.601 214.422L212.556 212.227L215.548 211.2C217.206 210.651 218.612 210.138 218.702 210.067C218.774 210.014 217.837 209.607 216.629 209.2C215.404 208.775 213.998 208.279 213.475 208.102L212.556 207.748L213.98 204.827C214.755 203.234 215.404 201.888 215.404 201.835C215.404 201.8 214.052 202.401 212.412 203.18C210.754 203.959 209.384 204.561 209.348 204.526C209.312 204.49 208.826 203.198 208.267 201.64C207.708 200.1 207.204 198.737 207.131 198.613C207.077 198.489 206.537 199.728 205.96 201.357C205.383 202.986 204.861 204.367 204.789 204.437C204.734 204.508 204.032 204.26 203.239 203.889C202.013 203.322 201.581 203.003 200.391 201.729C199.634 200.914 199.039 200.153 199.075 200.029C199.13 199.905 199.742 197.71 200.445 195.161L201.707 190.505L197.526 186.398C194.678 183.6 193.218 182.273 192.966 182.29C192.768 182.308 190.172 182.963 187.199 183.76Z" fill="white" fill-opacity="0.19"/>
<path d="M142.864 201.835L137.817 204.721L137.781 210.633L137.727 216.529L142.233 219.078L146.738 221.627V223.699C146.738 225.416 146.666 225.965 146.306 227.027C146.054 227.735 145.819 228.372 145.747 228.461C145.693 228.549 144.341 228 142.719 227.239C141.115 226.478 139.782 225.894 139.746 225.911C139.71 225.947 140.304 227.257 141.061 228.833C142.107 231.028 142.377 231.754 142.215 231.86C142.071 231.931 141.115 232.302 140.07 232.656C136.448 233.913 136.213 234.002 136.484 234.144C136.628 234.214 137.962 234.692 139.439 235.206C140.935 235.719 142.215 236.197 142.287 236.268C142.377 236.339 141.872 237.578 141.17 238.994C140.485 240.428 139.854 241.738 139.8 241.933C139.71 242.199 140.304 241.986 142.701 240.853C144.359 240.074 145.729 239.472 145.747 239.49C145.765 239.525 146.162 240.658 146.612 242.022L147.459 244.5L147.64 252.024C147.748 256.167 147.82 260.327 147.82 261.265C147.82 262.31 147.892 263 148 263C148.108 263 148.18 262.31 148.18 261.265C148.18 260.327 148.252 256.167 148.36 252.024L148.541 244.5L149.388 242.022C149.838 240.658 150.235 239.525 150.253 239.49C150.271 239.472 151.64 240.074 153.299 240.853C155.696 241.986 156.29 242.199 156.2 241.933C156.146 241.738 155.515 240.428 154.83 238.994C154.128 237.578 153.623 236.339 153.713 236.268C153.785 236.197 155.083 235.719 156.561 235.206C158.056 234.692 159.372 234.214 159.516 234.144C159.787 234.002 159.552 233.913 155.93 232.656C154.884 232.302 153.929 231.931 153.785 231.86C153.623 231.754 153.893 231.028 154.939 228.833C155.696 227.257 156.29 225.947 156.254 225.911C156.218 225.894 154.884 226.478 153.281 227.239C151.658 228 150.307 228.549 150.253 228.461C150.181 228.372 149.946 227.735 149.694 227.027C149.334 225.965 149.262 225.416 149.262 223.699V221.627L153.767 219.078L158.273 216.529L158.219 210.633L158.183 204.721L153.064 201.817C150.253 200.224 147.946 198.914 147.928 198.932C147.928 198.932 145.639 200.242 142.864 201.835Z" fill="white" fill-opacity="0.19"/>
<path d="M147.871 78.1835C147.871 78.8424 147.819 81.7096 147.742 84.5646L147.612 89.75L147.005 91.4581C146.682 92.3976 146.398 93.1785 146.385 93.2029C146.372 93.2151 145.39 92.8003 144.202 92.2634C142.484 91.4825 142.057 91.3361 142.122 91.5192C142.161 91.6534 142.613 92.5562 143.104 93.5445C143.608 94.5206 143.969 95.3747 143.905 95.4235C143.853 95.4723 142.936 95.8017 141.864 96.1555C140.804 96.5093 139.848 96.8388 139.745 96.8876C139.551 96.9852 139.719 97.0462 142.316 97.9125C143.065 98.1565 143.75 98.4127 143.853 98.4615C143.969 98.5347 143.776 99.0349 143.026 100.548C142.484 101.634 142.057 102.537 142.083 102.561C142.109 102.573 143.065 102.171 144.215 101.646C145.377 101.121 146.346 100.743 146.385 100.804C146.437 100.865 146.605 101.304 146.786 101.792C147.044 102.524 147.096 102.903 147.096 104.086V105.514L143.866 107.271L140.636 109.028L140.675 113.09L140.701 117.166L144.357 119.154L148 121.155L151.656 119.154L155.299 117.166L155.325 113.09L155.364 109.028L152.134 107.271L148.904 105.514V104.086C148.904 102.903 148.956 102.524 149.214 101.792C149.395 101.304 149.563 100.865 149.615 100.804C149.654 100.743 150.622 101.121 151.785 101.646C152.935 102.171 153.891 102.573 153.917 102.561C153.943 102.537 153.516 101.634 152.974 100.548C152.224 99.0349 152.031 98.5347 152.147 98.4615C152.25 98.4127 152.935 98.1565 153.684 97.9125C156.281 97.0462 156.449 96.9852 156.255 96.8876C156.152 96.8388 155.209 96.5093 154.136 96.1555C153.077 95.8017 152.147 95.4723 152.095 95.4235C152.031 95.3747 152.392 94.5206 152.896 93.5445C153.387 92.5562 153.839 91.6534 153.878 91.5192C153.943 91.3361 153.516 91.4825 151.798 92.2634C150.61 92.8003 149.628 93.2151 149.615 93.2029C149.602 93.1785 149.318 92.3976 148.995 91.4581L148.388 89.75L148.258 84.5646C148.181 81.7096 148.129 78.8424 148.129 78.1835C148.129 77.4759 148.077 77 148 77C147.922 77 147.871 77.4759 147.871 78.1835Z" fill="white" fill-opacity="0.36"/>
<path d="M90.8479 99.5718C91.2742 100.011 93.5608 102.305 95.9249 104.66L100.214 108.966L100.976 110.479L101.725 111.992L99.5809 112.7C98.3924 113.078 97.3847 113.432 97.3201 113.481C97.2684 113.517 97.9402 113.798 98.8057 114.079C99.6842 114.372 100.692 114.713 101.067 114.835L101.725 115.079L100.705 117.092C100.149 118.19 99.6842 119.118 99.6842 119.154C99.6842 119.179 100.653 118.764 101.829 118.227C103.017 117.69 103.999 117.275 104.025 117.3C104.051 117.324 104.4 118.215 104.8 119.289C105.2 120.35 105.562 121.289 105.614 121.375C105.653 121.46 106.04 120.606 106.454 119.484C106.867 118.361 107.242 117.41 107.293 117.361C107.332 117.312 107.836 117.483 108.404 117.739C109.283 118.129 109.593 118.349 110.445 119.227C111.104 119.899 111.414 120.313 111.376 120.448C111.337 120.557 110.898 122.07 110.407 123.803L109.502 126.963L112.5 129.794C114.153 131.355 115.6 132.636 115.703 132.636C115.807 132.624 117.667 132.173 119.837 131.624L123.778 130.623L124.837 126.902C125.418 124.852 125.896 123.095 125.909 122.998C125.909 122.9 124.553 121.533 122.899 119.972L119.902 117.141L116.556 117.995C114.722 118.459 113.12 118.874 113.003 118.91C112.861 118.947 112.422 118.654 111.711 118.032C110.781 117.227 110.549 116.934 110.135 116.104C109.864 115.567 109.683 115.091 109.735 115.055C109.787 115.006 110.794 114.652 111.983 114.262C113.171 113.871 114.076 113.505 113.985 113.469C113.895 113.42 112.9 113.078 111.776 112.7C110.639 112.322 109.696 111.992 109.67 111.968C109.645 111.944 110.084 111.016 110.652 109.894C111.221 108.783 111.66 107.868 111.634 107.868C111.595 107.868 110.613 108.308 109.451 108.832L107.319 109.796L107.074 109.174C106.932 108.82 106.57 107.868 106.26 107.051C105.95 106.221 105.666 105.587 105.627 105.648C105.575 105.697 105.2 106.648 104.787 107.759L104.038 109.784L102.436 109.076L100.834 108.356L96.2866 104.306C93.7804 102.085 91.3646 99.9256 90.8995 99.523L90.0598 98.7787L90.8479 99.5718Z" fill="white" fill-opacity="0.36"/>
<path d="M200.476 103.61L195.153 108.369L193.551 109.076L191.962 109.784L191.213 107.759C190.8 106.648 190.425 105.697 190.373 105.648C190.335 105.587 190.05 106.221 189.74 107.051C189.43 107.868 189.069 108.82 188.926 109.174L188.681 109.796L186.549 108.832C185.387 108.308 184.405 107.868 184.366 107.868C184.34 107.868 184.78 108.783 185.348 109.894C185.916 111.016 186.356 111.944 186.33 111.968C186.304 111.992 185.361 112.322 184.224 112.7C183.1 113.078 182.105 113.42 182.015 113.469C181.925 113.505 182.829 113.871 184.017 114.262C185.206 114.652 186.214 115.006 186.265 115.055C186.317 115.091 186.136 115.567 185.865 116.104C185.387 117.044 185.077 117.385 183.591 118.63L183.204 118.947L182.105 118.666C181.498 118.52 179.909 118.105 178.553 117.763L176.098 117.141L173.101 119.972C171.448 121.533 170.091 122.9 170.091 122.998C170.104 123.095 170.582 124.852 171.163 126.902L172.223 130.623L176.163 131.624C178.333 132.173 180.193 132.624 180.297 132.636C180.4 132.636 181.847 131.355 183.501 129.794L186.498 126.963L185.593 123.803C185.103 122.07 184.663 120.557 184.625 120.448C184.586 120.313 184.896 119.899 185.555 119.227C186.407 118.349 186.717 118.129 187.596 117.739C188.164 117.483 188.668 117.312 188.707 117.361C188.759 117.41 189.133 118.361 189.547 119.484C189.96 120.606 190.348 121.46 190.386 121.375C190.438 121.289 190.8 120.35 191.2 119.289C191.601 118.215 191.949 117.324 191.975 117.3C192.001 117.275 192.983 117.69 194.171 118.227C195.347 118.764 196.316 119.179 196.316 119.154C196.316 119.118 195.851 118.19 195.295 117.08C194.288 115.116 194.275 115.055 194.546 114.957C194.701 114.908 195.722 114.567 196.807 114.213C197.879 113.847 198.732 113.517 198.68 113.481C198.615 113.432 197.608 113.078 196.432 112.688L194.288 111.968L195.037 110.467L195.786 108.966L200.075 104.672C202.439 102.305 204.713 100.023 205.152 99.5962C205.579 99.1813 205.902 98.8397 205.876 98.8397C205.837 98.8397 203.408 100.987 200.476 103.61Z" fill="white" fill-opacity="0.36"/>
<path d="M169.161 104.44C167.701 106.734 167.572 107.014 165.711 111.468L163.774 116.092L161.797 118.349C160.712 119.593 159.743 120.704 159.653 120.814C159.562 120.936 158.451 124.73 157.172 129.244L154.86 137.456L152.25 143.678C150.829 147.094 149.602 150.035 149.537 150.193C149.408 150.486 149.408 150.486 148.711 149.84L148 149.181L147.38 149.754L146.747 150.34L146.489 149.693C146.333 149.339 145.184 146.606 143.944 143.617L141.657 138.188L139.164 129.574L136.683 120.948L134.823 118.837C133.802 117.666 132.859 116.604 132.73 116.458C132.601 116.311 131.606 114.091 130.521 111.504C128.635 107.002 128.493 106.721 127.072 104.476C126.258 103.195 125.573 102.158 125.56 102.183C125.534 102.207 125.832 103.427 126.219 104.891C126.917 107.49 126.981 107.685 129.01 112.078L131.102 116.592L131.412 119.752L131.722 122.9L136.296 130.367L140.869 137.822L143.724 144.056C145.287 147.485 146.579 150.328 146.579 150.376C146.579 150.413 146.178 150.45 145.675 150.45H144.77V151.316C144.77 152.121 144.757 152.17 144.512 152.097C144.176 151.999 133.544 147.643 132.304 147.107C131.813 146.887 127.847 144.788 123.506 142.434L115.626 138.163L112.267 137.858L108.921 137.553L104.141 135.577C99.4904 133.661 99.2837 133.588 96.532 132.929C94.9818 132.563 93.6899 132.282 93.6641 132.295C93.6383 132.319 94.7364 132.978 96.1057 133.747C98.4957 135.101 98.7799 135.223 103.508 136.992L108.43 138.822L110.975 140.835L113.533 142.836L122.214 145.02L130.883 147.192L137.407 149.632C140.998 150.962 144.099 152.121 144.292 152.182L144.667 152.316L144.047 152.902L143.427 153.5L144.124 154.171C144.809 154.83 144.809 154.83 144.499 154.952C144.331 155.013 141.373 156.111 137.923 157.404L131.658 159.747L122.589 162.077L113.52 164.408L111.014 166.384L108.495 168.373L104.309 169.922C102.022 170.776 99.6971 171.643 99.1675 171.862C98.3019 172.204 93.2895 174.974 93.522 174.974C93.5737 174.974 94.9043 174.669 96.4545 174.303C99.2191 173.644 99.4258 173.583 104.18 171.631L109.05 169.642L112.319 169.361L115.587 169.093L123.429 164.798C127.744 162.443 131.826 160.284 132.498 160.003C133.169 159.735 136.154 158.514 139.125 157.294C142.083 156.087 144.577 155.086 144.641 155.086C144.719 155.086 144.77 155.415 144.77 155.818V156.55H145.739C146.269 156.55 146.708 156.562 146.708 156.587C146.708 156.648 145.907 158.417 143.427 163.785L141.037 169.007L136.386 176.657L131.748 184.32L131.464 187.37L131.18 190.408L129.048 195.032C126.994 199.534 126.917 199.742 126.232 202.328C125.844 203.78 125.522 205.025 125.522 205.073C125.522 205.122 126.193 204.122 127.007 202.853C128.428 200.632 128.57 200.339 130.495 195.776L132.511 191.018L134.603 188.639L136.709 186.259L139.009 178.085L141.308 169.91L144.021 163.383C145.52 159.796 146.76 156.831 146.799 156.806C146.824 156.77 147.109 156.989 147.419 157.282L148 157.819L148.646 157.221C148.995 156.892 149.318 156.648 149.344 156.684C149.382 156.721 150.584 159.539 152.018 162.956L154.614 169.166L156.668 176.316C157.805 180.244 158.916 184.088 159.136 184.856L159.549 186.259L161.655 188.663L163.761 191.054L165.699 195.715C167.572 200.217 167.688 200.449 169.135 202.743C169.975 204.048 170.659 205.098 170.685 205.073C170.698 205.061 170.401 203.841 170.013 202.365C169.316 199.742 169.251 199.571 167.197 195.105L165.091 190.53L164.794 187.419L164.497 184.32L159.976 176.926L155.441 169.544L152.573 163.309C150.997 159.881 149.666 156.965 149.628 156.819C149.537 156.562 149.576 156.55 150.377 156.55H151.23V155.757C151.23 155.318 151.268 154.964 151.32 154.964C151.359 154.964 154.343 156.172 157.934 157.636L164.471 160.32L172.558 164.688L180.658 169.068L183.914 169.349L187.182 169.63L192.04 171.618C196.781 173.57 196.962 173.631 199.739 174.29C201.302 174.656 202.594 174.937 202.607 174.925C202.633 174.9 201.522 174.254 200.14 173.473C197.711 172.094 197.466 171.984 192.711 170.227L187.802 168.397L185.257 166.396L182.712 164.395L173.979 162.187L165.246 159.991L158.852 157.612C152.082 155.086 151.462 154.842 151.372 154.769C151.333 154.732 151.591 154.439 151.94 154.11L152.573 153.5L152.005 152.951C151.695 152.658 151.462 152.39 151.501 152.365C151.553 152.316 153.852 151.45 161.177 148.742C164.549 147.485 165.117 147.326 172.416 145.447C176.641 144.374 180.697 143.324 181.408 143.141L182.725 142.787L185.219 140.811C186.601 139.725 187.815 138.81 187.919 138.761C188.022 138.725 190.296 137.883 192.957 136.882C197.608 135.15 197.905 135.015 200.256 133.673C201.612 132.905 202.659 132.27 202.607 132.27C202.555 132.27 201.238 132.575 199.688 132.941C196.949 133.588 196.755 133.661 192.104 135.564L187.337 137.529L183.978 137.834L180.62 138.139L172.739 142.434C164.885 146.728 164.846 146.741 160.725 148.437C153.31 151.475 151.32 152.28 151.281 152.28C151.255 152.28 151.23 151.865 151.23 151.365V150.45H150.455C150.028 150.45 149.679 150.401 149.679 150.328C149.679 150.267 150.739 147.912 152.018 145.118C153.31 142.312 154.537 139.627 154.744 139.164C154.963 138.688 157.237 134.82 159.821 130.562L164.497 122.814L164.794 119.764L165.078 116.726L167.197 112.09C169.277 107.575 169.342 107.392 170.039 104.781C170.427 103.305 170.724 102.085 170.711 102.073C170.685 102.061 169.988 103.122 169.161 104.44Z" fill="white" fill-opacity="0.36"/>
<path d="M145.688 128.195L143.427 135.101L143.633 135.784C144.086 137.346 147.935 148.986 148 148.986C148.065 148.986 151.914 137.346 152.366 135.784L152.573 135.101L150.312 128.195C149.072 124.401 148.039 121.289 148 121.289C147.961 121.289 146.928 124.401 145.688 128.195Z" fill="white" fill-opacity="0.36"/>
<path d="M123.842 130.709C123.842 130.733 124.914 132.661 126.232 135.015C127.55 137.358 129.165 140.25 129.81 141.433L131.012 143.593L137.781 146.96C141.502 148.815 144.576 150.315 144.602 150.291C144.628 150.267 143.039 147.363 141.076 143.849L137.51 137.456L135.223 136.321C133.97 135.711 130.921 134.186 128.428 132.941C123.971 130.721 123.842 130.66 123.842 130.709Z" fill="white" fill-opacity="0.36"/>
<path d="M171.111 131.16C170.646 131.404 167.61 132.917 164.381 134.527L158.503 137.456L154.924 143.849C152.961 147.363 151.372 150.267 151.398 150.291C151.423 150.315 154.498 148.815 158.219 146.96L164.988 143.593L166.189 141.433C166.835 140.25 168.45 137.358 169.768 135.015C171.086 132.661 172.158 130.733 172.158 130.709C172.158 130.635 171.899 130.745 171.111 131.16Z" fill="white" fill-opacity="0.36"/>
<path d="M88.0316 145.716C87.9928 145.813 87.6569 146.704 87.2823 147.705C86.9077 148.717 86.5589 149.583 86.5072 149.632C86.4555 149.693 85.5512 149.352 84.5177 148.876C83.4713 148.412 82.5153 147.985 82.3732 147.949C82.1794 147.888 82.3345 148.29 83.1612 149.913C83.7297 151.035 84.1689 151.963 84.156 151.975C84.1301 151.987 83.3034 152.255 82.3086 152.561L80.5 153.134L75.0096 153.256C71.9866 153.329 68.9507 153.378 68.266 153.378C67.5038 153.378 67 153.427 67 153.5C67 153.573 67.5038 153.622 68.266 153.622C68.9507 153.622 71.9866 153.671 75.0096 153.744L80.5 153.866L82.3086 154.439C83.3034 154.744 84.1301 155.013 84.156 155.025C84.1689 155.037 83.7297 155.965 83.1612 157.087C82.3345 158.71 82.1794 159.112 82.3732 159.051C82.5153 159.015 83.4713 158.588 84.5177 158.124C85.5512 157.648 86.4555 157.307 86.5072 157.368C86.5589 157.417 86.9077 158.283 87.2823 159.295C87.6569 160.296 88.0057 161.199 88.0574 161.296C88.1608 161.479 88.2641 161.248 89.1426 158.868C89.4139 158.161 89.6723 157.502 89.7239 157.417C89.8014 157.307 90.344 157.49 91.933 158.197C93.0828 158.71 94.0388 159.112 94.0646 159.088C94.0775 159.064 93.6512 158.161 93.0957 157.075C92.5402 155.977 92.1268 155.062 92.1785 155.025C92.2431 155.001 92.6952 154.83 93.1861 154.659C93.9742 154.403 94.3101 154.354 95.6407 154.354H97.1909L99.0512 157.404L100.911 160.455L105.213 160.418L109.528 160.394L111.634 156.941L113.753 153.5L111.634 150.047L109.528 146.606L105.213 146.582L100.911 146.545L99.0512 149.596L97.1909 152.646H95.6407C94.3101 152.646 93.9742 152.597 93.1861 152.341C92.6952 152.17 92.2431 151.999 92.1785 151.975C92.1268 151.938 92.5402 151.023 93.0957 149.925C93.6512 148.839 94.0775 147.936 94.0646 147.912C94.0388 147.888 93.0828 148.29 91.933 148.803C90.3053 149.522 89.8014 149.705 89.7239 149.571C89.6593 149.486 89.3234 148.62 88.9617 147.644C88.2254 145.667 88.1349 145.46 88.0316 145.716Z" fill="white" fill-opacity="0.36"/>
<path d="M207.594 146.192C207.452 146.558 207.116 147.424 206.857 148.132C206.586 148.839 206.328 149.498 206.276 149.583C206.199 149.693 205.656 149.51 204.067 148.803C202.917 148.29 201.961 147.888 201.935 147.912C201.922 147.936 202.349 148.839 202.904 149.925C203.46 151.023 203.873 151.938 203.821 151.975C203.757 151.999 203.305 152.17 202.814 152.341C202.026 152.597 201.69 152.646 200.359 152.646H198.809L196.949 149.596L195.088 146.545L190.787 146.582L186.472 146.606L184.366 150.047L182.247 153.5L184.366 156.941L186.472 160.394L190.787 160.418L195.088 160.455L196.949 157.404L198.809 154.354H200.359C201.69 154.354 202.026 154.403 202.814 154.659C203.305 154.83 203.757 155.001 203.821 155.025C203.873 155.062 203.46 155.977 202.904 157.075C202.349 158.161 201.922 159.064 201.935 159.088C201.961 159.112 202.917 158.71 204.067 158.197C205.656 157.49 206.199 157.307 206.276 157.417C206.328 157.502 206.586 158.161 206.857 158.868C207.736 161.248 207.839 161.479 207.943 161.296C207.994 161.199 208.343 160.296 208.718 159.295C209.092 158.283 209.441 157.417 209.493 157.368C209.544 157.307 210.449 157.648 211.482 158.124C212.529 158.588 213.485 159.015 213.627 159.051C213.821 159.112 213.666 158.71 212.839 157.087C212.27 155.965 211.831 155.037 211.844 155.025C211.87 155.013 212.697 154.744 213.691 154.439L215.5 153.866L220.99 153.744C224.013 153.671 227.049 153.622 227.747 153.622C228.496 153.622 229 153.573 229 153.5C229 153.427 228.496 153.378 227.747 153.378C227.049 153.378 224.013 153.329 220.99 153.256L215.5 153.134L213.691 152.561C212.697 152.255 211.87 151.987 211.844 151.975C211.831 151.963 212.27 151.035 212.839 149.913C213.666 148.29 213.821 147.888 213.627 147.949C213.485 147.985 212.529 148.412 211.482 148.876C210.449 149.352 209.544 149.693 209.493 149.632C209.441 149.583 209.092 148.705 208.718 147.705C208.343 146.692 207.994 145.801 207.943 145.704C207.878 145.582 207.762 145.74 207.594 146.192Z" fill="white" fill-opacity="0.36"/>
<path d="M124.746 150.267C122.86 150.828 119.656 151.78 117.615 152.365C115.574 152.951 113.895 153.463 113.895 153.5C113.895 153.537 115.535 154.037 117.551 154.622C119.553 155.196 122.834 156.16 124.85 156.745L128.506 157.819L129.242 157.624C130.973 157.172 143.22 153.561 143.22 153.5C143.22 153.463 141.347 152.89 139.06 152.231C136.761 151.56 133.518 150.608 131.852 150.12C130.185 149.632 128.674 149.23 128.493 149.242C128.312 149.254 126.633 149.718 124.746 150.267Z" fill="white" fill-opacity="0.36"/>
<path d="M165.698 149.657C164.949 149.888 161.745 150.828 158.567 151.755C155.376 152.682 152.78 153.463 152.78 153.5C152.78 153.561 165.027 157.172 166.758 157.624L167.494 157.819L171.15 156.745C173.165 156.16 176.447 155.196 178.449 154.622C180.464 154.037 182.105 153.537 182.105 153.5C182.105 153.463 180.426 152.951 178.385 152.365C176.343 151.78 173.114 150.828 171.189 150.267C169.277 149.693 167.559 149.242 167.378 149.242C167.197 149.242 166.448 149.437 165.698 149.657Z" fill="white" fill-opacity="0.36"/>
<path d="M137.73 160.052L131.012 163.407L129.811 165.567C129.165 166.75 127.55 169.63 126.232 171.972C124.927 174.327 123.868 176.255 123.881 176.279C123.907 176.291 125.948 175.291 128.441 174.059C130.922 172.814 133.97 171.289 135.224 170.679L137.51 169.544L141.037 163.212C144.913 156.282 144.706 156.672 144.551 156.684C144.499 156.684 141.425 158.197 137.73 160.052Z" fill="white" fill-opacity="0.36"/>
<path d="M151.372 156.77C151.398 156.831 153.012 159.735 154.963 163.224L158.49 169.544L160.777 170.679C162.03 171.289 165.078 172.814 167.559 174.059C170.052 175.291 172.093 176.291 172.119 176.279C172.132 176.255 171.073 174.327 169.768 171.972C168.45 169.63 166.835 166.75 166.189 165.567L164.988 163.407L158.296 160.076C154.614 158.234 151.54 156.709 151.462 156.684C151.385 156.66 151.346 156.697 151.372 156.77Z" fill="white" fill-opacity="0.36"/>
<path d="M145.881 164.273C144.757 167.702 143.737 170.825 143.633 171.216L143.427 171.899L145.688 178.805C146.928 182.599 147.961 185.71 148 185.71C148.039 185.71 149.072 182.599 150.312 178.805L152.573 171.899L152.366 171.216C151.914 169.654 148.065 158.014 148 158.014C147.961 158.014 147.018 160.833 145.881 164.273Z" fill="white" fill-opacity="0.36"/>
<path d="M112.512 177.194L109.502 180.037L110.458 183.392L111.427 186.748L111.078 187.114C109.761 188.517 109.399 188.81 108.404 189.261C107.836 189.517 107.332 189.688 107.293 189.639C107.242 189.59 106.867 188.639 106.454 187.516C106.04 186.394 105.653 185.54 105.614 185.625C105.562 185.711 105.2 186.65 104.8 187.712C104.4 188.785 104.051 189.676 104.025 189.7C103.999 189.725 103.017 189.31 101.829 188.773C100.653 188.236 99.6842 187.821 99.6842 187.846C99.6842 187.882 100.149 188.81 100.705 189.908L101.725 191.921L101.067 192.165C100.692 192.287 99.6842 192.628 98.8057 192.921C97.9402 193.202 97.2684 193.483 97.3201 193.519C97.3847 193.568 98.3924 193.922 99.5679 194.312L101.712 195.032L100.963 196.533L100.214 198.034L95.9249 202.34C93.5608 204.695 91.2742 206.989 90.8479 207.428L90.0598 208.221L90.8995 207.477C91.3646 207.074 93.7804 204.915 96.2866 202.694L100.834 198.644L102.436 197.924L104.038 197.216L104.787 199.241C105.2 200.352 105.575 201.303 105.627 201.352C105.666 201.413 105.95 200.779 106.26 199.949C106.57 199.132 106.932 198.18 107.074 197.826L107.319 197.204L109.451 198.168C110.613 198.692 111.595 199.132 111.634 199.132C111.66 199.132 111.221 198.217 110.652 197.106C110.084 195.984 109.645 195.056 109.67 195.032C109.696 195.008 110.639 194.678 111.776 194.3C112.9 193.922 113.895 193.58 113.985 193.531C114.076 193.495 113.171 193.129 111.983 192.738C110.794 192.348 109.787 191.994 109.735 191.945C109.683 191.909 109.864 191.433 110.135 190.896C110.613 189.956 110.923 189.615 112.409 188.37L112.797 188.053L113.895 188.334C114.502 188.48 116.091 188.895 117.447 189.237L119.902 189.859L122.899 187.028C124.553 185.467 125.909 184.1 125.909 184.002C125.896 183.905 125.418 182.148 124.837 180.098L123.778 176.377L119.837 175.376C117.667 174.827 115.807 174.376 115.703 174.364C115.6 174.364 114.153 175.645 112.512 177.194Z" fill="white" fill-opacity="0.36"/>
<path d="M176.098 175.389L172.223 176.377L171.163 180.098C170.582 182.148 170.104 183.905 170.091 184.002C170.091 184.1 171.448 185.467 173.101 187.028L176.098 189.859L179.444 189.005C181.279 188.541 182.881 188.126 182.997 188.09C183.139 188.053 183.578 188.346 184.289 188.968C185.219 189.773 185.451 190.066 185.865 190.896C186.136 191.433 186.317 191.909 186.265 191.945C186.214 191.994 185.206 192.348 184.017 192.738C182.829 193.129 181.925 193.495 182.015 193.531C182.105 193.58 183.1 193.922 184.224 194.3C185.361 194.678 186.304 195.008 186.33 195.032C186.356 195.056 185.916 195.984 185.348 197.106C184.78 198.217 184.34 199.132 184.366 199.132C184.405 199.132 185.387 198.692 186.549 198.168L188.681 197.204L188.926 197.826C189.069 198.18 189.43 199.132 189.74 199.949C190.05 200.779 190.335 201.413 190.373 201.352C190.425 201.303 190.8 200.352 191.213 199.241L191.962 197.204L193.551 197.924L195.153 198.631L199.714 202.682C202.207 204.915 204.636 207.074 205.101 207.477L205.94 208.221L205.152 207.428C204.726 206.989 202.439 204.695 200.075 202.34L195.786 198.034L195.024 196.521L194.275 195.008L196.419 194.3C197.608 193.922 198.615 193.568 198.68 193.519C198.732 193.483 198.06 193.202 197.194 192.921C196.316 192.628 195.308 192.287 194.934 192.165L194.275 191.921L195.295 189.908C195.851 188.81 196.316 187.882 196.316 187.846C196.316 187.821 195.347 188.236 194.171 188.773C192.983 189.31 192.001 189.725 191.975 189.7C191.949 189.676 191.601 188.785 191.2 187.712C190.8 186.65 190.438 185.711 190.386 185.625C190.348 185.54 189.96 186.394 189.547 187.516C189.133 188.639 188.759 189.59 188.707 189.639C188.668 189.688 188.164 189.517 187.596 189.261C186.717 188.871 186.407 188.651 185.555 187.773C185.012 187.211 184.586 186.687 184.612 186.601C184.65 186.516 185.09 185.003 185.593 183.246L186.498 180.037L183.501 177.206C181.459 175.279 180.413 174.364 180.232 174.376C180.09 174.388 178.23 174.839 176.098 175.389Z" fill="white" fill-opacity="0.36"/>
<path d="M144.318 187.846L140.701 189.834L140.675 193.91L140.636 197.972L143.866 199.729L147.096 201.486V202.914C147.096 204.097 147.044 204.476 146.786 205.208C146.605 205.696 146.437 206.135 146.385 206.196C146.346 206.257 145.377 205.879 144.215 205.354C143.065 204.829 142.109 204.427 142.083 204.439C142.057 204.463 142.484 205.366 143.026 206.452C143.776 207.965 143.969 208.465 143.853 208.539C143.75 208.587 143.065 208.844 142.316 209.088C139.719 209.954 139.551 210.015 139.745 210.112C139.848 210.161 140.804 210.491 141.864 210.844C142.936 211.198 143.853 211.528 143.905 211.577C143.969 211.625 143.608 212.479 143.104 213.456C142.613 214.444 142.161 215.347 142.122 215.481C142.057 215.664 142.484 215.517 144.202 214.737C145.39 214.2 146.372 213.785 146.385 213.797C146.398 213.822 146.682 214.602 147.005 215.542L147.612 217.25L147.742 222.435C147.819 225.29 147.871 228.158 147.871 228.804C147.871 229.524 147.922 230 148 230C148.077 230 148.129 229.524 148.129 228.804C148.129 228.158 148.181 225.29 148.258 222.435L148.388 217.25L148.995 215.542C149.318 214.602 149.602 213.822 149.615 213.797C149.628 213.785 150.61 214.2 151.798 214.737C153.516 215.517 153.943 215.664 153.878 215.481C153.839 215.347 153.387 214.444 152.896 213.456C152.392 212.479 152.031 211.625 152.095 211.577C152.147 211.528 153.077 211.198 154.136 210.844C155.209 210.491 156.152 210.161 156.255 210.112C156.449 210.015 156.281 209.954 153.684 209.088C152.935 208.844 152.25 208.587 152.147 208.539C152.031 208.465 152.224 207.965 152.974 206.452C153.516 205.366 153.943 204.463 153.917 204.439C153.891 204.427 152.935 204.829 151.785 205.354C150.622 205.879 149.654 206.257 149.615 206.196C149.563 206.135 149.395 205.696 149.214 205.208C148.956 204.476 148.904 204.097 148.904 202.914V201.486L152.134 199.729L155.364 197.972L155.325 193.91L155.299 189.834L151.63 187.833C149.615 186.735 147.961 185.833 147.948 185.845C147.948 185.845 146.308 186.748 144.318 187.846Z" fill="white" fill-opacity="0.36"/>
</svg>
